Kedebideri-Regular.ufo
<glyph name="exclam" format="2">
  <advance width="388"/>
  <unicode hex="0021"/>
  <outline>
    <component base="period" xOffset="65"/>
    <contour>
      <point x="151" y="684" type="line"/>
      <point x="162" y="213" type="line"/>
      <point x="224" y="213" type="line"/>
      <point x="235" y="684" type="line"/>
    </contour>
  </outline>
</glyph>
<glyph name="numbersign" format="2">
  <advance width="506"/>
  <unicode hex="0023"/>
  <outline>
    <contour>
      <point x="94" y="0" type="line"/>
      <point x="142" y="0" type="line"/>
      <point x="168" y="215" type="line"/>
      <point x="311" y="215" type="line"/>
      <point x="286" y="0" type="line"/>
      <point x="333" y="0" type="line"/>
      <point x="359" y="215" type="line"/>
      <point x="454" y="215" type="line"/>
      <point x="454" y="265" type="line"/>
      <point x="366" y="265" type="line"/>
      <point x="386" y="427" type="line"/>
      <point x="475" y="427" type="line"/>
      <point x="475" y="477" type="line"/>
      <point x="391" y="477" type="line"/>
      <point x="416" y="671" type="line"/>
      <point x="368" y="671" type="line"/>
      <point x="343" y="477" type="line"/>
      <point x="199" y="477" type="line"/>
      <point x="224" y="671" type="line"/>
      <point x="177" y="671" type="line"/>
      <point x="151" y="477" type="line"/>
      <point x="57" y="477" type="line"/>
      <point x="57" y="427" type="line"/>
      <point x="146" y="427" type="line"/>
      <point x="126" y="265" type="line"/>
      <point x="36" y="265" type="line"/>
      <point x="36" y="215" type="line"/>
      <point x="120" y="215" type="line"/>
    </contour>
    <contour>
      <point x="174" y="265" type="line"/>
      <point x="194" y="427" type="line"/>
      <point x="338" y="427" type="line"/>
      <point x="318" y="265" type="line"/>
    </contour>
  </outline>
</glyph>
<glyph name="dollar" format="2">
  <advance width="506"/>
  <unicode hex="0024"/>
  <outline>
    <contour>
      <point x="252" y="-12" type="curve" smooth="yes"/>
      <point x="365" y="-12"/>
      <point x="444" y="57"/>
      <point x="444" y="165" type="curve" smooth="yes"/>
      <point x="444" y="393"/>
      <point x="151" y="343"/>
      <point x="151" y="506" type="curve" smooth="yes"/>
      <point x="151" y="569"/>
      <point x="195" y="613"/>
      <point x="261" y="613" type="curve" smooth="yes"/>
      <point x="320" y="613"/>
      <point x="352" y="590"/>
      <point x="390" y="553" type="curve"/>
      <point x="428" y="594" type="line"/>
      <point x="388" y="637"/>
      <point x="340" y="672"/>
      <point x="260" y="672" type="curve" smooth="yes"/>
      <point x="157" y="672"/>
      <point x="82" y="602"/>
      <point x="82" y="502" type="curve" smooth="yes"/>
      <point x="82" y="298"/>
      <point x="375" y="342"/>
      <point x="375" y="160" type="curve" smooth="yes"/>
      <point x="375" y="92"/>
      <point x="333" y="46"/>
      <point x="252" y="46" type="curve" smooth="yes"/>
      <point x="186" y="46"/>
      <point x="132" y="79"/>
      <point x="90" y="116" type="curve"/>
      <point x="56" y="68" type="line"/>
      <point x="103" y="24"/>
      <point x="176" y="-12"/>
    </contour>
    <contour>
      <point x="231" y="-113" type="line"/>
      <point x="284" y="-113" type="line"/>
      <point x="284" y="10" type="line"/>
      <point x="231" y="10" type="line"/>
    </contour>
    <contour>
      <point x="231" y="644" type="line"/>
      <point x="284" y="644" type="line"/>
      <point x="284" y="773" type="line"/>
      <point x="231" y="773" type="line"/>
    </contour>
  </outline>
</glyph>
<glyph name="ampersand" format="2">
  <advance width="615"/>
  <unicode hex="0026"/>
  <outline>
    <contour>
      <point x="237" y="-12" type="curve" smooth="yes"/>
      <point x="328" y="-12"/>
      <point x="396" y="30"/>
      <point x="452" y="92" type="curve" smooth="yes"/>
      <point x="516" y="167"/>
      <point x="561" y="260"/>
      <point x="590" y="362" type="curve"/>
      <point x="526" y="362" type="line"/>
      <point x="500" y="268"/>
      <point x="459" y="188"/>
      <point x="403" y="126" type="curve" smooth="yes"/>
      <point x="358" y="77"/>
      <point x="303" y="44"/>
      <point x="244" y="44" type="curve" smooth="yes"/>
      <point x="166" y="44"/>
      <point x="103" y="97"/>
      <point x="103" y="178" type="curve" smooth="yes"/>
      <point x="103" y="333"/>
      <point x="401" y="388"/>
      <point x="401" y="561" type="curve" smooth="yes"/>
      <point x="401" y="637"/>
      <point x="355" y="691"/>
      <point x="275" y="691" type="curve" smooth="yes"/>
      <point x="186" y="691"/>
      <point x="125" y="623"/>
      <point x="125" y="534" type="curve" smooth="yes"/>
      <point x="125" y="388"/>
      <point x="267" y="198"/>
      <point x="411" y="82" type="curve" smooth="yes"/>
      <point x="471" y="34"/>
      <point x="529" y="3"/>
      <point x="580" y="-12" type="curve"/>
      <point x="600" y="46" type="line"/>
      <point x="557" y="59"/>
      <point x="505" y="88"/>
      <point x="452" y="130" type="curve" smooth="yes"/>
      <point x="324" y="229"/>
      <point x="186" y="404"/>
      <point x="186" y="535" type="curve" smooth="yes"/>
      <point x="186" y="594"/>
      <point x="220" y="640"/>
      <point x="275" y="640" type="curve" smooth="yes"/>
      <point x="324" y="640"/>
      <point x="343" y="601"/>
      <point x="343" y="560" type="curve" smooth="yes"/>
      <point x="343" y="411"/>
      <point x="34" y="371"/>
      <point x="34" y="174" type="curve" smooth="yes"/>
      <point x="34" y="63"/>
      <point x="120" y="-12"/>
    </contour>
  </outline>
</glyph>
<glyph name="quotesingle" format="2">
  <advance width="245"/>
  <unicode hex="0027"/>
  <outline>
    <contour>
      <point x="99" y="464" type="line"/>
      <point x="144" y="464" type="line"/>
      <point x="157" y="628" type="line"/>
      <point x="159" y="714" type="line"/>
      <point x="84" y="714" type="line"/>
      <point x="85" y="628" type="line"/>
    </contour>
  </outline>
</glyph>
<glyph name="parenright" format="2">
  <advance width="478"/>
  <unicode hex="0029"/>
  <outline>
    <contour>
      <point x="80" y="-140" type="curve"/>
      <point x="133" y="-181" type="line"/>
      <point x="245" y="-49"/>
      <point x="324" y="162"/>
      <point x="324" y="333" type="curve" smooth="yes"/>
      <point x="324" y="514"/>
      <point x="260" y="685"/>
      <point x="132" y="847" type="curve"/>
      <point x="77" y="807" type="line"/>
      <point x="195" y="658"/>
      <point x="254" y="500"/>
      <point x="254" y="333" type="curve" smooth="yes"/>
      <point x="254" y="174"/>
      <point x="182" y="-20"/>
    </contour>
  </outline>
</glyph>
<glyph name="asterisk" format="2">
  <advance width="422"/>
  <unicode hex="002A"/>
  <outline>
    <contour>
      <point x="140" y="451" type="line"/>
      <point x="211" y="538" type="line"/>
      <point x="281" y="451" type="line"/>
      <point x="317" y="477" type="line"/>
      <point x="259" y="572" type="line"/>
      <point x="357" y="612" type="line"/>
      <point x="344" y="652" type="line"/>
      <point x="241" y="627" type="line"/>
      <point x="232" y="735" type="line"/>
      <point x="189" y="735" type="line"/>
      <point x="180" y="626" type="line"/>
      <point x="77" y="652" type="line"/>
      <point x="64" y="612" type="line"/>
      <point x="162" y="572" type="line"/>
      <point x="104" y="477" type="line"/>
    </contour>
  </outline>
</glyph>
<glyph name="plus" format="2">
  <advance width="506"/>
  <unicode hex="002B"/>
  <outline>
    <contour>
      <point x="224" y="109" type="line"/>
      <point x="281" y="109" type="line"/>
      <point x="281" y="314" type="line"/>
      <point x="470" y="314" type="line"/>
      <point x="470" y="367" type="line"/>
      <point x="281" y="367" type="line"/>
      <point x="281" y="572" type="line"/>
      <point x="224" y="572" type="line"/>
      <point x="224" y="367" type="line"/>
      <point x="35" y="367" type="line"/>
      <point x="35" y="314" type="line"/>
      <point x="224" y="314" type="line"/>
    </contour>
  </outline>
</glyph>
<glyph name="slash" format="2">
  <advance width="364"/>
  <unicode hex="002F"/>
  <outline>
    <contour>
      <point x="9" y="-165" type="line"/>
      <point x="62" y="-165" type="line"/>
      <point x="354" y="733" type="line"/>
      <point x="301" y="733" type="line"/>
    </contour>
  </outline>
</glyph>
<glyph name="zero" format="2">
  <advance width="506"/>
  <unicode hex="0030"/>
  <outline>
    <contour>
      <point x="253" y="-12" type="curve" smooth="yes"/>
      <point x="382" y="-12"/>
      <point x="458" y="111"/>
      <point x="458" y="332" type="curve" smooth="yes"/>
      <point x="458" y="552"/>
      <point x="382" y="672"/>
      <point x="253" y="672" type="curve" smooth="yes"/>
      <point x="123" y="672"/>
      <point x="47" y="552"/>
      <point x="47" y="332" type="curve" smooth="yes"/>
      <point x="47" y="111"/>
      <point x="123" y="-12"/>
    </contour>
    <contour>
      <point x="253" y="44" type="curve" smooth="yes"/>
      <point x="170" y="44"/>
      <point x="115" y="135"/>
      <point x="115" y="332" type="curve" smooth="yes"/>
      <point x="115" y="528"/>
      <point x="170" y="615"/>
      <point x="253" y="615" type="curve" smooth="yes"/>
      <point x="335" y="615"/>
      <point x="390" y="528"/>
      <point x="390" y="332" type="curve" smooth="yes"/>
      <point x="390" y="135"/>
      <point x="335" y="44"/>
    </contour>
  </outline>
</glyph>
<glyph name="one" format="2">
  <advance width="506"/>
  <unicode hex="0031"/>
  <outline>
    <contour>
      <point x="83" y="0" type="line"/>
      <point x="444" y="0" type="line"/>
      <point x="444" y="58" type="line"/>
      <point x="305" y="58" type="line"/>
      <point x="305" y="659" type="line"/>
      <point x="251" y="659" type="line"/>
      <point x="217" y="639"/>
      <point x="174" y="623"/>
      <point x="116" y="613" type="curve"/>
      <point x="116" y="568" type="line"/>
      <point x="236" y="568" type="line"/>
      <point x="236" y="58" type="line"/>
      <point x="83" y="58" type="line"/>
    </contour>
  </outline>
</glyph>
<glyph name="two" format="2">
  <advance width="506"/>
  <unicode hex="0032"/>
  <outline>
    <contour>
      <point x="41" y="0" type="line"/>
      <point x="459" y="0" type="line"/>
      <point x="459" y="60" type="line"/>
      <point x="254" y="60" type="line" smooth="yes"/>
      <point x="219" y="60"/>
      <point x="179" y="57"/>
      <point x="143" y="54" type="curve"/>
      <point x="310" y="230"/>
      <point x="426" y="354"/>
      <point x="426" y="481" type="curve" smooth="yes"/>
      <point x="426" y="596"/>
      <point x="353" y="672"/>
      <point x="233" y="672" type="curve" smooth="yes"/>
      <point x="149" y="672"/>
      <point x="91" y="631"/>
      <point x="38" y="572" type="curve"/>
      <point x="79" y="532" type="line"/>
      <point x="118" y="579"/>
      <point x="168" y="614"/>
      <point x="225" y="614" type="curve" smooth="yes"/>
      <point x="315" y="614"/>
      <point x="357" y="556"/>
      <point x="357" y="478" type="curve" smooth="yes"/>
      <point x="357" y="368"/>
      <point x="247" y="248"/>
      <point x="41" y="41" type="curve"/>
    </contour>
  </outline>
</glyph>
<glyph name="three" format="2">
  <advance width="506"/>
  <unicode hex="0033"/>
  <outline>
    <contour>
      <point x="241" y="-12" type="curve" smooth="yes"/>
      <point x="360" y="-12"/>
      <point x="453" y="58"/>
      <point x="453" y="175" type="curve" smooth="yes"/>
      <point x="453" y="267"/>
      <point x="387" y="326"/>
      <point x="307" y="344" type="curve"/>
      <point x="307" y="348" type="line"/>
      <point x="379" y="374"/>
      <point x="429" y="425"/>
      <point x="429" y="507" type="curve" smooth="yes"/>
      <point x="429" y="612"/>
      <point x="348" y="672"/>
      <point x="239" y="672" type="curve" smooth="yes"/>
      <point x="161" y="672"/>
      <point x="102" y="636"/>
      <point x="54" y="590" type="curve"/>
      <point x="92" y="545" type="line"/>
      <point x="130" y="585"/>
      <point x="180" y="614"/>
      <point x="237" y="614" type="curve" smooth="yes"/>
      <point x="311" y="614"/>
      <point x="358" y="571"/>
      <point x="358" y="502" type="curve" smooth="yes"/>
      <point x="358" y="429"/>
      <point x="309" y="371"/>
      <point x="164" y="371" type="curve"/>
      <point x="164" y="316" type="line"/>
      <point x="323" y="316"/>
      <point x="382" y="260"/>
      <point x="382" y="176" type="curve" smooth="yes"/>
      <point x="382" y="97"/>
      <point x="322" y="46"/>
      <point x="238" y="46" type="curve" smooth="yes"/>
      <point x="156" y="46"/>
      <point x="104" y="84"/>
      <point x="64" y="126" type="curve"/>
      <point x="28" y="80" type="line"/>
      <point x="71" y="33"/>
      <point x="136" y="-12"/>
    </contour>
  </outline>
</glyph>
<glyph name="four" format="2">
  <advance width="506"/>
  <unicode hex="0034"/>
  <outline>
    <contour>
      <point x="316" y="0" type="line"/>
      <point x="382" y="0" type="line"/>
      <point x="382" y="659" type="line"/>
      <point x="309" y="659" type="line"/>
      <point x="17" y="232" type="line"/>
      <point x="17" y="187" type="line"/>
      <point x="475" y="187" type="line"/>
      <point x="475" y="244" type="line"/>
      <point x="93" y="244" type="line"/>
      <point x="263" y="488" type="line"/>
      <point x="281" y="520"/>
      <point x="300" y="547"/>
      <point x="317" y="577" type="curve"/>
      <point x="321" y="577" type="line"/>
      <point x="319" y="544"/>
      <point x="316" y="489"/>
      <point x="316" y="456" type="curve" smooth="yes"/>
    </contour>
  </outline>
</glyph>
<glyph name="five" format="2">
  <advance width="506"/>
  <unicode hex="0035"/>
  <outline>
    <contour>
      <point x="239" y="-12" type="curve" smooth="yes"/>
      <point x="350" y="-12"/>
      <point x="456" y="67"/>
      <point x="456" y="209" type="curve" smooth="yes"/>
      <point x="456" y="352"/>
      <point x="365" y="417"/>
      <point x="253" y="417" type="curve" smooth="yes"/>
      <point x="209" y="417"/>
      <point x="177" y="405"/>
      <point x="145" y="386" type="curve"/>
      <point x="164" y="599" type="line"/>
      <point x="422" y="599" type="line"/>
      <point x="422" y="659" type="line"/>
      <point x="103" y="659" type="line"/>
      <point x="80" y="345" type="line"/>
      <point x="120" y="320" type="line"/>
      <point x="159" y="346"/>
      <point x="189" y="362"/>
      <point x="237" y="362" type="curve" smooth="yes"/>
      <point x="327" y="362"/>
      <point x="385" y="304"/>
      <point x="385" y="207" type="curve" smooth="yes"/>
      <point x="385" y="109"/>
      <point x="316" y="46"/>
      <point x="233" y="46" type="curve" smooth="yes"/>
      <point x="150" y="46"/>
      <point x="100" y="83"/>
      <point x="61" y="123" type="curve"/>
      <point x="25" y="77" type="line"/>
      <point x="70" y="32"/>
      <point x="133" y="-12"/>
    </contour>
  </outline>
</glyph>
<glyph name="six" format="2">
  <advance width="506"/>
  <unicode hex="0036"/>
  <outline>
    <contour>
      <point x="274" y="-12" type="curve" smooth="yes"/>
      <point x="376" y="-12"/>
      <point x="463" y="73"/>
      <point x="463" y="197" type="curve" smooth="yes"/>
      <point x="463" y="331"/>
      <point x="391" y="401"/>
      <point x="277" y="401" type="curve" smooth="yes"/>
      <point x="218" y="401"/>
      <point x="156" y="365"/>
      <point x="113" y="308" type="curve"/>
      <point x="115" y="248" type="line"/>
      <point x="164" y="320"/>
      <point x="221" y="347"/>
      <point x="266" y="347" type="curve" smooth="yes"/>
      <point x="355" y="347"/>
      <point x="396" y="286"/>
      <point x="396" y="197" type="curve" smooth="yes"/>
      <point x="396" y="107"/>
      <point x="343" y="43"/>
      <point x="274" y="43" type="curve" smooth="yes"/>
      <point x="170" y="43"/>
      <point x="117" y="140"/>
      <point x="117" y="302" type="curve" smooth="yes"/>
      <point x="117" y="534"/>
      <point x="201" y="613"/>
      <point x="301" y="613" type="curve" smooth="yes"/>
      <point x="342" y="613"/>
      <point x="383" y="593"/>
      <point x="410" y="560" type="curve"/>
      <point x="450" y="604" type="line"/>
      <point x="414" y="643"/>
      <point x="366" y="672"/>
      <point x="299" y="672" type="curve" smooth="yes"/>
      <point x="169" y="672"/>
      <point x="51" y="572"/>
      <point x="51" y="302" type="curve" smooth="yes"/>
      <point x="51" y="95"/>
      <point x="143" y="-12"/>
    </contour>
  </outline>
</glyph>
<glyph name="seven" format="2">
  <advance width="506"/>
  <unicode hex="0037"/>
  <outline>
    <contour>
      <point x="187" y="0" type="curve"/>
      <point x="259" y="0" type="line"/>
      <point x="270" y="257"/>
      <point x="305" y="413"/>
      <point x="462" y="617" type="curve"/>
      <point x="462" y="659" type="line"/>
      <point x="45" y="659" type="line"/>
      <point x="45" y="599" type="line"/>
      <point x="381" y="599" type="line"/>
      <point x="250" y="416"/>
      <point x="198" y="255"/>
    </contour>
  </outline>
</glyph>
<glyph name="eight" format="2">
  <advance width="506"/>
  <unicode hex="0038"/>
  <outline>
    <contour>
      <point x="255" y="-12" type="curve" smooth="yes"/>
      <point x="380" y="-12"/>
      <point x="463" y="64"/>
      <point x="463" y="162" type="curve" smooth="yes"/>
      <point x="463" y="250"/>
      <point x="406" y="296"/>
      <point x="348" y="331" type="curve"/>
      <point x="348" y="335" type="line"/>
      <point x="387" y="365"/>
      <point x="440" y="427"/>
      <point x="440" y="497" type="curve" smooth="yes"/>
      <point x="440" y="598"/>
      <point x="371" y="672"/>
      <point x="257" y="672" type="curve" smooth="yes"/>
      <point x="154" y="672"/>
      <point x="76" y="604"/>
      <point x="76" y="505" type="curve" smooth="yes"/>
      <point x="76" y="436"/>
      <point x="120" y="387"/>
      <point x="169" y="354" type="curve"/>
      <point x="169" y="349" type="line"/>
      <point x="107" y="316"/>
      <point x="41" y="256"/>
      <point x="41" y="168" type="curve" smooth="yes"/>
      <point x="41" y="64"/>
      <point x="132" y="-12"/>
    </contour>
    <contour>
      <point x="302" y="353" type="curve"/>
      <point x="220" y="386"/>
      <point x="141" y="421"/>
      <point x="141" y="505" type="curve" smooth="yes"/>
      <point x="141" y="572"/>
      <point x="189" y="618"/>
      <point x="256" y="618" type="curve" smooth="yes"/>
      <point x="334" y="618"/>
      <point x="378" y="563"/>
      <point x="378" y="494" type="curve" smooth="yes"/>
      <point x="378" y="442"/>
      <point x="351" y="396"/>
    </contour>
    <contour>
      <point x="256" y="40" type="curve" smooth="yes"/>
      <point x="169" y="40"/>
      <point x="105" y="98"/>
      <point x="105" y="174" type="curve" smooth="yes"/>
      <point x="105" y="239"/>
      <point x="149" y="290"/>
      <point x="208" y="327" type="curve"/>
      <point x="306" y="288"/>
      <point x="395" y="255"/>
      <point x="395" y="163" type="curve" smooth="yes"/>
      <point x="395" y="92"/>
      <point x="340" y="40"/>
    </contour>
  </outline>
</glyph>
<glyph name="nine" format="2">
  <advance width="506"/>
  <unicode hex="0039"/>
  <outline>
    <contour>
      <point x="206" y="-12" type="curve" smooth="yes"/>
      <point x="336" y="-12"/>
      <point x="454" y="87"/>
      <point x="454" y="357" type="curve" smooth="yes"/>
      <point x="454" y="564"/>
      <point x="362" y="672"/>
      <point x="231" y="672" type="curve" smooth="yes"/>
      <point x="128" y="672"/>
      <point x="42" y="586"/>
      <point x="42" y="462" type="curve" smooth="yes"/>
      <point x="42" y="328"/>
      <point x="113" y="258"/>
      <point x="228" y="258" type="curve" smooth="yes"/>
      <point x="287" y="258"/>
      <point x="348" y="294"/>
      <point x="392" y="351" type="curve"/>
      <point x="390" y="410" type="line"/>
      <point x="341" y="339"/>
      <point x="283" y="312"/>
      <point x="239" y="312" type="curve" smooth="yes"/>
      <point x="149" y="312"/>
      <point x="108" y="372"/>
      <point x="108" y="462" type="curve" smooth="yes"/>
      <point x="108" y="552"/>
      <point x="161" y="616"/>
      <point x="230" y="616" type="curve" smooth="yes"/>
      <point x="334" y="616"/>
      <point x="387" y="519"/>
      <point x="387" y="357" type="curve" smooth="yes"/>
      <point x="387" y="125"/>
      <point x="303" y="46"/>
      <point x="204" y="46" type="curve" smooth="yes"/>
      <point x="162" y="46"/>
      <point x="122" y="65"/>
      <point x="94" y="99" type="curve"/>
      <point x="55" y="54" type="line"/>
      <point x="90" y="16"/>
      <point x="139" y="-12"/>
    </contour>
  </outline>
</glyph>
<glyph name="less" format="2">
  <advance width="506"/>
  <unicode hex="003C"/>
  <outline>
    <contour>
      <point x="470" y="141" type="line"/>
      <point x="470" y="203" type="line"/>
      <point x="243" y="288" type="line"/>
      <point x="106" y="340" type="line"/>
      <point x="106" y="345" type="line"/>
      <point x="243" y="397" type="line"/>
      <point x="470" y="482" type="line"/>
      <point x="470" y="544" type="line"/>
      <point x="35" y="372" type="line"/>
      <point x="35" y="313" type="line"/>
    </contour>
  </outline>
</glyph>
<glyph name="greater" format="2">
  <advance width="506"/>
  <unicode hex="003E"/>
  <outline>
    <contour>
      <point x="35" y="141" type="line"/>
      <point x="470" y="313" type="line"/>
      <point x="470" y="372" type="line"/>
      <point x="35" y="544" type="line"/>
      <point x="35" y="482" type="line"/>
      <point x="262" y="397" type="line"/>
      <point x="399" y="345" type="line"/>
      <point x="399" y="340" type="line"/>
      <point x="262" y="288" type="line"/>
      <point x="35" y="203" type="line"/>
    </contour>
  </outline>
</glyph>
<glyph name="question" format="2">
  <advance width="611"/>
  <unicode hex="003F"/>
  <outline>
    <component base="period" xOffset="143"/>
    <contour>
      <point x="241" y="363" type="curve"/>
      <point x="241" y="213" type="line"/>
      <point x="307" y="213" type="line"/>
      <point x="307" y="344" type="line"/>
      <point x="266" y="301" type="line"/>
      <point x="441" y="301"/>
      <point x="519" y="406"/>
      <point x="519" y="507" type="curve" smooth="yes"/>
      <point x="519" y="618"/>
      <point x="423" y="701"/>
      <point x="293" y="701" type="curve" smooth="yes"/>
      <point x="221" y="701"/>
      <point x="129" y="676"/>
      <point x="67" y="596" type="curve"/>
      <point x="115" y="552" type="line"/>
      <point x="164" y="614"/>
      <point x="229" y="636"/>
      <point x="293" y="636" type="curve" smooth="yes"/>
      <point x="382" y="636"/>
      <point x="454" y="590"/>
      <point x="454" y="497" type="curve" smooth="yes"/>
      <point x="454" y="432"/>
      <point x="390" y="363"/>
    </contour>
  </outline>
</glyph>
<glyph name="at" format="2">
  <advance width="861"/>
  <unicode hex="0040"/>
  <outline>
    <contour>
      <point x="409" y="-156" type="curve" smooth="yes"/>
      <point x="481" y="-156"/>
      <point x="545" y="-138"/>
      <point x="605" y="-102" type="curve"/>
      <point x="584" y="-59" type="line"/>
      <point x="537" y="-87"/>
      <point x="480" y="-107"/>
      <point x="415" y="-107" type="curve" smooth="yes"/>
      <point x="235" y="-107"/>
      <point x="106" y="10"/>
      <point x="106" y="212" type="curve" smooth="yes"/>
      <point x="106" y="455"/>
      <point x="284" y="613"/>
      <point x="470" y="613" type="curve" smooth="yes"/>
      <point x="654" y="613"/>
      <point x="757" y="493"/>
      <point x="757" y="322" type="curve" smooth="yes"/>
      <point x="757" y="183"/>
      <point x="680" y="102"/>
      <point x="615" y="102" type="curve" smooth="yes"/>
      <point x="555" y="102"/>
      <point x="534" y="144"/>
      <point x="556" y="231" type="curve" smooth="yes"/>
      <point x="595" y="433" type="line"/>
      <point x="547" y="433" type="line"/>
      <point x="537" y="391" type="line"/>
      <point x="535" y="391" type="line"/>
      <point x="515" y="425"/>
      <point x="487" y="441"/>
      <point x="450" y="441" type="curve" smooth="yes"/>
      <point x="330" y="441"/>
      <point x="254" y="310"/>
      <point x="254" y="204" type="curve" smooth="yes"/>
      <point x="254" y="111"/>
      <point x="309" y="60"/>
      <point x="377" y="60" type="curve" smooth="yes"/>
      <point x="423" y="60"/>
      <point x="468" y="92"/>
      <point x="502" y="131" type="curve"/>
      <point x="504" y="131" type="line"/>
      <point x="511" y="79"/>
      <point x="553" y="53"/>
      <point x="608" y="53" type="curve" smooth="yes"/>
      <point x="699" y="53"/>
      <point x="808" y="147"/>
      <point x="808" y="325" type="curve" smooth="yes"/>
      <point x="808" y="526"/>
      <point x="680" y="662"/>
      <point x="475" y="662" type="curve" smooth="yes"/>
      <point x="249" y="662"/>
      <point x="52" y="483"/>
      <point x="52" y="209" type="curve" smooth="yes"/>
      <point x="52" y="-26"/>
      <point x="208" y="-156"/>
    </contour>
    <contour>
      <point x="388" y="110" type="curve" smooth="yes"/>
      <point x="345" y="110"/>
      <point x="312" y="137"/>
      <point x="312" y="208" type="curve" smooth="yes"/>
      <point x="312" y="290"/>
      <point x="365" y="391"/>
      <point x="451" y="391" type="curve" smooth="yes"/>
      <point x="480" y="391"/>
      <point x="499" y="379"/>
      <point x="521" y="344" type="curve"/>
      <point x="491" y="174" type="line"/>
      <point x="453" y="130"/>
      <point x="419" y="110"/>
    </contour>
  </outline>
</glyph>
<glyph name="J" format="2">
  <advance width="488"/>
  <unicode hex="004A"/>
  <anchor x="356" y="702" name="aboveUC"/>
  <outline>
    <contour>
      <point x="215" y="-12" type="curve" smooth="yes"/>
      <point x="344" y="-12"/>
      <point x="395" y="79"/>
      <point x="395" y="193" type="curve" smooth="yes"/>
      <point x="395" y="679" type="line"/>
      <point x="324" y="679" type="line"/>
      <point x="324" y="200" type="line" smooth="yes"/>
      <point x="324" y="94"/>
      <point x="286" y="50"/>
      <point x="210" y="50" type="curve" smooth="yes"/>
      <point x="158" y="50"/>
      <point x="119" y="72"/>
      <point x="87" y="128" type="curve"/>
      <point x="36" y="92" type="line"/>
      <point x="73" y="24"/>
      <point x="133" y="-12"/>
    </contour>
  </outline>
</glyph>
<glyph name="M" format="2">
  <advance width="742"/>
  <unicode hex="004D"/>
  <anchor x="370" y="702" name="aboveUC"/>
  <outline>
    <contour>
      <point x="95" y="0" type="line"/>
      <point x="160" y="0" type="line"/>
      <point x="160" y="403" type="line" smooth="yes"/>
      <point x="160" y="460"/>
      <point x="154" y="538"/>
      <point x="151" y="597" type="curve"/>
      <point x="155" y="597" type="line"/>
      <point x="209" y="443" type="line"/>
      <point x="345" y="70" type="line"/>
      <point x="395" y="70" type="line"/>
      <point x="531" y="443" type="line"/>
      <point x="584" y="597" type="line"/>
      <point x="588" y="597" type="line"/>
      <point x="585" y="538"/>
      <point x="580" y="460"/>
      <point x="580" y="403" type="curve" smooth="yes"/>
      <point x="580" y="0" type="line"/>
      <point x="646" y="0" type="line"/>
      <point x="646" y="679" type="line"/>
      <point x="557" y="679" type="line"/>
      <point x="423" y="302" type="line"/>
      <point x="406" y="254"/>
      <point x="391" y="205"/>
      <point x="374" y="156" type="curve"/>
      <point x="370" y="156" type="line"/>
      <point x="353" y="205"/>
      <point x="336" y="254"/>
      <point x="319" y="302" type="curve"/>
      <point x="185" y="679" type="line"/>
      <point x="95" y="679" type="line"/>
    </contour>
  </outline>
</glyph>
<glyph name="O" format="2">
  <advance width="681"/>
  <unicode hex="004F"/>
  <anchor x="340" y="702" name="aboveUC"/>
  <outline>
    <contour>
      <point x="340" y="-12" type="curve" smooth="yes"/>
      <point x="508" y="-12"/>
      <point x="626" y="125"/>
      <point x="626" y="341" type="curve" smooth="yes"/>
      <point x="626" y="558"/>
      <point x="508" y="691"/>
      <point x="340" y="691" type="curve" smooth="yes"/>
      <point x="173" y="691"/>
      <point x="54" y="558"/>
      <point x="54" y="341" type="curve" smooth="yes"/>
      <point x="54" y="125"/>
      <point x="173" y="-12"/>
    </contour>
    <contour>
      <point x="340" y="50" type="curve" smooth="yes"/>
      <point x="212" y="50"/>
      <point x="128" y="165"/>
      <point x="128" y="341" type="curve" smooth="yes"/>
      <point x="128" y="518"/>
      <point x="212" y="628"/>
      <point x="340" y="628" type="curve" smooth="yes"/>
      <point x="468" y="628"/>
      <point x="553" y="518"/>
      <point x="553" y="341" type="curve" smooth="yes"/>
      <point x="553" y="165"/>
      <point x="468" y="50"/>
    </contour>
  </outline>
</glyph>
<glyph name="Q" format="2">
  <advance width="681"/>
  <unicode hex="0051"/>
  <anchor x="340" y="702" name="aboveUC"/>
  <outline>
    <contour>
      <point x="340" y="-12" type="curve" smooth="yes"/>
      <point x="508" y="-12"/>
      <point x="626" y="125"/>
      <point x="626" y="341" type="curve" smooth="yes"/>
      <point x="626" y="558"/>
      <point x="508" y="691"/>
      <point x="340" y="691" type="curve" smooth="yes"/>
      <point x="173" y="691"/>
      <point x="54" y="558"/>
      <point x="54" y="341" type="curve" smooth="yes"/>
      <point x="54" y="125"/>
      <point x="173" y="-12"/>
    </contour>
    <contour>
      <point x="340" y="46" type="curve" smooth="yes"/>
      <point x="212" y="46"/>
      <point x="128" y="162"/>
      <point x="128" y="341" type="curve" smooth="yes"/>
      <point x="128" y="518"/>
      <point x="212" y="628"/>
      <point x="340" y="628" type="curve" smooth="yes"/>
      <point x="468" y="628"/>
      <point x="553" y="518"/>
      <point x="553" y="341" type="curve" smooth="yes"/>
      <point x="553" y="162"/>
      <point x="468" y="46"/>
    </contour>
    <contour>
      <point x="545" y="-166" type="curve" smooth="yes"/>
      <point x="582" y="-166"/>
      <point x="617" y="-159"/>
      <point x="636" y="-152" type="curve"/>
      <point x="622" y="-96" type="line"/>
      <point x="604" y="-101"/>
      <point x="582" y="-105"/>
      <point x="552" y="-105" type="curve" smooth="yes"/>
      <point x="468" y="-105"/>
      <point x="402" y="-67"/>
      <point x="374" y="6" type="curve"/>
      <point x="300" y="1" type="line"/>
      <point x="334" y="-94"/>
      <point x="419" y="-166"/>
    </contour>
  </outline>
</glyph>
<glyph name="R" format="2">
  <advance width="577"/>
  <unicode hex="0052"/>
  <anchor x="300" y="702" name="aboveUC"/>
  <outline>
    <contour>
      <point x="95" y="0" type="line"/>
      <point x="166" y="0" type="line"/>
      <point x="166" y="297" type="line"/>
      <point x="301" y="297" type="line" smooth="yes"/>
      <point x="438" y="297"/>
      <point x="533" y="361"/>
      <point x="533" y="492" type="curve" smooth="yes"/>
      <point x="533" y="629"/>
      <point x="438" y="679"/>
      <point x="301" y="679" type="curve" smooth="yes"/>
      <point x="95" y="679" type="line"/>
    </contour>
    <contour>
      <point x="166" y="355" type="line"/>
      <point x="166" y="621" type="line"/>
      <point x="288" y="621" type="line" smooth="yes"/>
      <point x="400" y="621"/>
      <point x="461" y="587"/>
      <point x="461" y="492" type="curve" smooth="yes"/>
      <point x="461" y="399"/>
      <point x="400" y="355"/>
      <point x="288" y="355" type="curve" smooth="yes"/>
    </contour>
    <contour>
      <point x="469" y="0" type="line"/>
      <point x="550" y="0" type="line"/>
      <point x="345" y="349" type="line"/>
      <point x="286" y="316" type="line"/>
    </contour>
  </outline>
</glyph>
<glyph name="S" format="2">
  <advance width="546"/>
  <unicode hex="0053"/>
  <anchor x="284" y="702" name="aboveUC"/>
  <anchor x="280" y="0" name="baseLC"/>
  <outline>
    <contour>
      <point x="279" y="-12" type="curve" smooth="yes"/>
      <point x="418" y="-12"/>
      <point x="505" y="70"/>
      <point x="505" y="176" type="curve" smooth="yes"/>
      <point x="505" y="278"/>
      <point x="441" y="323"/>
      <point x="364" y="357" type="curve" smooth="yes"/>
      <point x="265" y="400" type="line" smooth="yes"/>
      <point x="213" y="423"/>
      <point x="150" y="449"/>
      <point x="150" y="520" type="curve" smooth="yes"/>
      <point x="150" y="586"/>
      <point x="204" y="628"/>
      <point x="286" y="628" type="curve" smooth="yes"/>
      <point x="351" y="628"/>
      <point x="402" y="603"/>
      <point x="443" y="562" type="curve"/>
      <point x="482" y="608" type="line"/>
      <point x="437" y="655"/>
      <point x="367" y="691"/>
      <point x="286" y="691" type="curve" smooth="yes"/>
      <point x="167" y="691"/>
      <point x="79" y="618"/>
      <point x="79" y="516" type="curve" smooth="yes"/>
      <point x="79" y="416"/>
      <point x="155" y="370"/>
      <point x="216" y="344" type="curve" smooth="yes"/>
      <point x="316" y="299" type="line" smooth="yes"/>
      <point x="381" y="270"/>
      <point x="433" y="246"/>
      <point x="433" y="171" type="curve" smooth="yes"/>
      <point x="433" y="99"/>
      <point x="375" y="50"/>
      <point x="280" y="50" type="curve" smooth="yes"/>
      <point x="206" y="50"/>
      <point x="137" y="84"/>
      <point x="88" y="137" type="curve"/>
      <point x="45" y="89" type="line"/>
      <point x="102" y="27"/>
      <point x="182" y="-12"/>
    </contour>
  </outline>
</glyph>
<glyph name="T" format="2">
  <advance width="549"/>
  <unicode hex="0054"/>
  <anchor x="273" y="702" name="aboveUC"/>
  <anchor x="274" y="0" name="baseLC"/>
  <outline>
    <contour>
      <point x="239" y="0" type="line"/>
      <point x="309" y="0" type="line"/>
      <point x="309" y="619" type="line"/>
      <point x="519" y="619" type="line"/>
      <point x="519" y="679" type="line"/>
      <point x="29" y="679" type="line"/>
      <point x="29" y="619" type="line"/>
      <point x="239" y="619" type="line"/>
    </contour>
  </outline>
</glyph>
<glyph name="bracketleft" format="2">
  <advance width="303"/>
  <unicode hex="005B"/>
  <outline>
    <contour>
      <point x="99" y="-157" type="line"/>
      <point x="275" y="-157" type="line"/>
      <point x="275" y="-116" type="line"/>
      <point x="151" y="-116" type="line"/>
      <point x="151" y="690" type="line"/>
      <point x="275" y="690" type="line"/>
      <point x="275" y="731" type="line"/>
      <point x="99" y="731" type="line"/>
    </contour>
  </outline>
</glyph>
<glyph name="backslash" format="2">
  <advance width="364"/>
  <unicode hex="005C"/>
  <outline>
    <contour>
      <point x="302" y="-165" type="line"/>
      <point x="355" y="-165" type="line"/>
      <point x="63" y="733" type="line"/>
      <point x="10" y="733" type="line"/>
    </contour>
  </outline>
</glyph>
<glyph name="bracketright" format="2">
  <advance width="303"/>
  <unicode hex="005D"/>
  <outline>
    <contour>
      <point x="27" y="-157" type="line"/>
      <point x="204" y="-157" type="line"/>
      <point x="204" y="731" type="line"/>
      <point x="27" y="731" type="line"/>
      <point x="27" y="690" type="line"/>
      <point x="151" y="690" type="line"/>
      <point x="151" y="-116" type="line"/>
      <point x="27" y="-116" type="line"/>
    </contour>
  </outline>
</glyph>
<glyph name="asciicircum" format="2">
  <advance width="506"/>
  <unicode hex="005E"/>
  <outline>
    <contour>
      <point x="64" y="295" type="line"/>
      <point x="126" y="295" type="line"/>
      <point x="199" y="488" type="line"/>
      <point x="250" y="626" type="line"/>
      <point x="255" y="626" type="line"/>
      <point x="306" y="488" type="line"/>
      <point x="379" y="295" type="line"/>
      <point x="441" y="295" type="line"/>
      <point x="285" y="692" type="line"/>
      <point x="220" y="692" type="line"/>
    </contour>
  </outline>
</glyph>
<glyph name="underscore" format="2">
  <advance width="516"/>
  <unicode hex="005F"/>
  <outline>
    <contour>
      <point x="12" y="-126" type="line"/>
      <point x="504" y="-126" type="line"/>
      <point x="504" y="-76" type="line"/>
      <point x="12" y="-76" type="line"/>
    </contour>
  </outline>
</glyph>
<glyph name="a" format="2">
  <advance width="515"/>
  <unicode hex="0061"/>
  <anchor x="275" y="524" name="aboveLC"/>
  <outline>
    <contour>
      <point x="201" y="-12" type="curve" smooth="yes"/>
      <point x="265" y="-12"/>
      <point x="323" y="21"/>
      <point x="372" y="61" type="curve"/>
      <point x="374" y="61" type="line"/>
      <point x="380" y="0" type="line"/>
      <point x="438" y="0" type="line"/>
      <point x="438" y="311" type="line" smooth="yes"/>
      <point x="438" y="429"/>
      <point x="391" y="512"/>
      <point x="270" y="512" type="curve" smooth="yes"/>
      <point x="190" y="512"/>
      <point x="120" y="475"/>
      <point x="78" y="447" type="curve"/>
      <point x="107" y="398" type="line"/>
      <point x="144" y="424"/>
      <point x="198" y="454"/>
      <point x="260" y="454" type="curve" smooth="yes"/>
      <point x="348" y="454"/>
      <point x="369" y="384"/>
      <point x="369" y="314" type="curve"/>
      <point x="152" y="291"/>
      <point x="56" y="237"/>
      <point x="56" y="127" type="curve" smooth="yes"/>
      <point x="56" y="36"/>
      <point x="120" y="-12"/>
    </contour>
    <contour>
      <point x="219" y="44" type="curve" smooth="yes"/>
      <point x="167" y="44"/>
      <point x="124" y="69"/>
      <point x="124" y="132" type="curve" smooth="yes"/>
      <point x="124" y="202"/>
      <point x="186" y="246"/>
      <point x="369" y="267" type="curve"/>
      <point x="369" y="116" type="line"/>
      <point x="315" y="69"/>
      <point x="271" y="44"/>
    </contour>
  </outline>
</glyph>
<glyph name="c" format="2">
  <advance width="467"/>
  <unicode hex="0063"/>
  <anchor x="280" y="524" name="aboveLC"/>
  <anchor x="277" y="0" name="baseLC"/>
  <outline>
    <contour>
      <point x="281" y="-12" type="curve" smooth="yes"/>
      <point x="342" y="-12"/>
      <point x="398" y="12"/>
      <point x="442" y="52" type="curve"/>
      <point x="410" y="99" type="line"/>
      <point x="378" y="69"/>
      <point x="335" y="46"/>
      <point x="286" y="46" type="curve" smooth="yes"/>
      <point x="188" y="46"/>
      <point x="121" y="127"/>
      <point x="121" y="249" type="curve" smooth="yes"/>
      <point x="121" y="370"/>
      <point x="193" y="453"/>
      <point x="288" y="453" type="curve" smooth="yes"/>
      <point x="331" y="453"/>
      <point x="364" y="433"/>
      <point x="395" y="405" type="curve"/>
      <point x="431" y="452" type="line"/>
      <point x="397" y="483"/>
      <point x="352" y="512"/>
      <point x="285" y="512" type="curve" smooth="yes"/>
      <point x="160" y="512"/>
      <point x="49" y="416"/>
      <point x="49" y="249" type="curve" smooth="yes"/>
      <point x="49" y="83"/>
      <point x="149" y="-12"/>
    </contour>
  </outline>
</glyph>
<glyph name="g" format="2">
  <advance width="513"/>
  <unicode hex="0067"/>
  <anchor x="263" y="524" name="aboveLC"/>
  <outline>
    <contour>
      <point x="255" y="-234" type="curve" smooth="yes"/>
      <point x="405" y="-234"/>
      <point x="501" y="-153"/>
      <point x="501" y="-62" type="curve" smooth="yes"/>
      <point x="501" y="18"/>
      <point x="445" y="54"/>
      <point x="331" y="54" type="curve" smooth="yes"/>
      <point x="229" y="54" type="line" smooth="yes"/>
      <point x="159" y="54"/>
      <point x="139" y="79"/>
      <point x="139" y="113" type="curve" smooth="yes"/>
      <point x="139" y="142"/>
      <point x="155" y="161"/>
      <point x="174" y="177" type="curve"/>
      <point x="197" y="165"/>
      <point x="226" y="158"/>
      <point x="252" y="158" type="curve" smooth="yes"/>
      <point x="352" y="158"/>
      <point x="432" y="228"/>
      <point x="432" y="333" type="curve" smooth="yes"/>
      <point x="432" y="379"/>
      <point x="412" y="420"/>
      <point x="385" y="445" type="curve"/>
      <point x="493" y="445" type="line"/>
      <point x="493" y="499" type="line"/>
      <point x="321" y="499" type="line"/>
      <point x="304" y="506"/>
      <point x="279" y="512"/>
      <point x="252" y="512" type="curve" smooth="yes"/>
      <point x="152" y="512"/>
      <point x="69" y="441"/>
      <point x="69" y="334" type="curve" smooth="yes"/>
      <point x="69" y="274"/>
      <point x="100" y="225"/>
      <point x="133" y="199" type="curve"/>
      <point x="133" y="195" type="line"/>
      <point x="109" y="178"/>
      <point x="78" y="145"/>
      <point x="78" y="102" type="curve" smooth="yes"/>
      <point x="78" y="64"/>
      <point x="97" y="37"/>
      <point x="123" y="21" type="curve"/>
      <point x="123" y="17" type="line"/>
      <point x="77" y="-13"/>
      <point x="49" y="-55"/>
      <point x="49" y="-98" type="curve" smooth="yes"/>
      <point x="49" y="-183"/>
      <point x="131" y="-234"/>
    </contour>
    <contour>
      <point x="252" y="207" type="curve" smooth="yes"/>
      <point x="190" y="207"/>
      <point x="136" y="257"/>
      <point x="136" y="334" type="curve" smooth="yes"/>
      <point x="136" y="412"/>
      <point x="188" y="460"/>
      <point x="252" y="460" type="curve" smooth="yes"/>
      <point x="315" y="460"/>
      <point x="367" y="412"/>
      <point x="367" y="334" type="curve" smooth="yes"/>
      <point x="367" y="257"/>
      <point x="314" y="207"/>
    </contour>
    <contour>
      <point x="264" y="-184" type="curve" smooth="yes"/>
      <point x="168" y="-184"/>
      <point x="111" y="-146"/>
      <point x="111" y="-89" type="curve" smooth="yes"/>
      <point x="111" y="-58"/>
      <point x="128" y="-24"/>
      <point x="168" y="2" type="curve"/>
      <point x="191" y="-2"/>
      <point x="216" y="-4"/>
      <point x="232" y="-4" type="curve" smooth="yes"/>
      <point x="326" y="-4" type="line" smooth="yes"/>
      <point x="396" y="-4"/>
      <point x="433" y="-22"/>
      <point x="433" y="-72" type="curve" smooth="yes"/>
      <point x="433" y="-129"/>
      <point x="366" y="-184"/>
    </contour>
  </outline>
</glyph>
<glyph name="m" format="2">
  <advance width="849"/>
  <unicode hex="006D"/>
  <anchor x="428" y="524" name="aboveLC"/>
  <outline>
    <contour>
      <point x="88" y="0" type="line"/>
      <point x="158" y="0" type="line"/>
      <point x="158" y="367" type="line"/>
      <point x="208" y="423"/>
      <point x="252" y="451"/>
      <point x="293" y="451" type="curve" smooth="yes"/>
      <point x="361" y="451"/>
      <point x="393" y="407"/>
      <point x="393" y="309" type="curve" smooth="yes"/>
      <point x="393" y="0" type="line"/>
      <point x="463" y="0" type="line"/>
      <point x="463" y="367" type="line"/>
      <point x="512" y="423"/>
      <point x="555" y="451"/>
      <point x="597" y="451" type="curve" smooth="yes"/>
      <point x="666" y="451"/>
      <point x="698" y="407"/>
      <point x="698" y="309" type="curve" smooth="yes"/>
      <point x="698" y="0" type="line"/>
      <point x="767" y="0" type="line"/>
      <point x="767" y="318" type="line" smooth="yes"/>
      <point x="767" y="446"/>
      <point x="718" y="512"/>
      <point x="616" y="512" type="curve" smooth="yes"/>
      <point x="557" y="512"/>
      <point x="503" y="472"/>
      <point x="449" y="414" type="curve"/>
      <point x="430" y="474"/>
      <point x="389" y="512"/>
      <point x="311" y="512" type="curve" smooth="yes"/>
      <point x="253" y="512"/>
      <point x="199" y="474"/>
      <point x="155" y="425" type="curve"/>
      <point x="152" y="425" type="line"/>
      <point x="146" y="499" type="line"/>
      <point x="88" y="499" type="line"/>
    </contour>
  </outline>
</glyph>
<glyph name="p" format="2">
  <advance width="568"/>
  <unicode hex="0070"/>
  <anchor x="296" y="524" name="aboveLC"/>
  <outline>
    <contour>
      <point x="88" y="-217" type="line"/>
      <point x="158" y="-217" type="line"/>
      <point x="158" y="-42" type="line"/>
      <point x="156" y="46" type="line"/>
      <point x="204" y="9"/>
      <point x="253" y="-12"/>
      <point x="299" y="-12" type="curve" smooth="yes"/>
      <point x="415" y="-12"/>
      <point x="517" y="87"/>
      <point x="517" y="257" type="curve" smooth="yes"/>
      <point x="517" y="411"/>
      <point x="449" y="512"/>
      <point x="318" y="512" type="curve" smooth="yes"/>
      <point x="259" y="512"/>
      <point x="202" y="478"/>
      <point x="155" y="440" type="curve"/>
      <point x="152" y="440" type="line"/>
      <point x="146" y="499" type="line"/>
      <point x="88" y="499" type="line"/>
    </contour>
    <contour>
      <point x="290" y="46" type="curve" smooth="yes"/>
      <point x="255" y="46"/>
      <point x="207" y="62"/>
      <point x="158" y="103" type="curve"/>
      <point x="158" y="379" type="line"/>
      <point x="211" y="427"/>
      <point x="258" y="453"/>
      <point x="303" y="453" type="curve" smooth="yes"/>
      <point x="405" y="453"/>
      <point x="445" y="372"/>
      <point x="445" y="256" type="curve" smooth="yes"/>
      <point x="445" y="128"/>
      <point x="380" y="46"/>
    </contour>
  </outline>
</glyph>
<glyph name="s" format="2">
  <advance width="427"/>
  <unicode hex="0073"/>
  <anchor x="222" y="524" name="aboveLC"/>
  <anchor x="228" y="0" name="baseLC"/>
  <outline>
    <contour>
      <point x="216" y="-12" type="curve" smooth="yes"/>
      <point x="330" y="-12"/>
      <point x="392" y="54"/>
      <point x="392" y="133" type="curve" smooth="yes"/>
      <point x="392" y="229"/>
      <point x="310" y="257"/>
      <point x="236" y="285" type="curve" smooth="yes"/>
      <point x="178" y="306"/>
      <point x="122" y="326"/>
      <point x="122" y="377" type="curve" smooth="yes"/>
      <point x="122" y="418"/>
      <point x="153" y="456"/>
      <point x="222" y="456" type="curve" smooth="yes"/>
      <point x="269" y="456"/>
      <point x="304" y="437"/>
      <point x="338" y="411" type="curve"/>
      <point x="372" y="457" type="line"/>
      <point x="335" y="488"/>
      <point x="281" y="512"/>
      <point x="222" y="512" type="curve" smooth="yes"/>
      <point x="115" y="512"/>
      <point x="54" y="450"/>
      <point x="54" y="373" type="curve" smooth="yes"/>
      <point x="54" y="289"/>
      <point x="135" y="256"/>
      <point x="207" y="230" type="curve" smooth="yes"/>
      <point x="263" y="209"/>
      <point x="325" y="184"/>
      <point x="325" y="128" type="curve" smooth="yes"/>
      <point x="325" y="82"/>
      <point x="289" y="42"/>
      <point x="218" y="42" type="curve" smooth="yes"/>
      <point x="154" y="42"/>
      <point x="109" y="68"/>
      <point x="66" y="103" type="curve"/>
      <point x="30" y="56" type="line"/>
      <point x="76" y="18"/>
      <point x="143" y="-12"/>
    </contour>
  </outline>
</glyph>
<glyph name="u" format="2">
  <advance width="556"/>
  <unicode hex="0075"/>
  <anchor x="278" y="524" name="aboveLC"/>
  <outline>
    <contour>
      <point x="233" y="-12" type="curve" smooth="yes"/>
      <point x="302" y="-12"/>
      <point x="353" y="24"/>
      <point x="400" y="80" type="curve"/>
      <point x="403" y="80" type="line"/>
      <point x="409" y="0" type="line"/>
      <point x="467" y="0" type="line"/>
      <point x="467" y="499" type="line"/>
      <point x="397" y="499" type="line"/>
      <point x="397" y="139" type="line"/>
      <point x="346" y="76"/>
      <point x="307" y="48"/>
      <point x="253" y="48" type="curve" smooth="yes"/>
      <point x="181" y="48"/>
      <point x="151" y="92"/>
      <point x="151" y="190" type="curve" smooth="yes"/>
      <point x="151" y="499" type="line"/>
      <point x="81" y="499" type="line"/>
      <point x="81" y="181" type="line" smooth="yes"/>
      <point x="81" y="53"/>
      <point x="129" y="-12"/>
    </contour>
  </outline>
</glyph>
<glyph name="z" format="2">
  <advance width="430"/>
  <unicode hex="007A"/>
  <anchor x="232" y="524" name="aboveLC"/>
  <outline>
    <contour>
      <point x="30" y="0" type="line"/>
      <point x="403" y="0" type="line"/>
      <point x="403" y="57" type="line"/>
      <point x="118" y="57" type="line"/>
      <point x="394" y="462" type="line"/>
      <point x="394" y="499" type="line"/>
      <point x="61" y="499" type="line"/>
      <point x="61" y="442" type="line"/>
      <point x="306" y="442" type="line"/>
      <point x="30" y="37" type="line"/>
    </contour>
  </outline>
</glyph>
<glyph name="braceleft" format="2">
  <advance width="489"/>
  <unicode hex="007B"/>
  <outline>
    <contour>
      <point x="381" y="-164" type="line"/>
      <point x="402" y="-105" type="line"/>
      <point x="241" y="-48" type="line"/>
      <point x="279" y="-108" type="line"/>
      <point x="307" y="231" type="line"/>
      <point x="170" y="376" type="line"/>
      <point x="170" y="310" type="line"/>
      <point x="307" y="455" type="line"/>
      <point x="279" y="795" type="line"/>
      <point x="241" y="735" type="line"/>
      <point x="402" y="792" type="line"/>
      <point x="383" y="851" type="line"/>
      <point x="212" y="792" type="line"/>
      <point x="237" y="476" type="line"/>
      <point x="117" y="349" type="line"/>
      <point x="117" y="337" type="line"/>
      <point x="237" y="210" type="line"/>
      <point x="212" y="-105" type="line"/>
    </contour>
  </outline>
</glyph>
<glyph name="bar" format="2">
  <advance width="242"/>
  <unicode hex="007C"/>
  <outline>
    <contour>
      <point x="95" y="-258" type="line"/>
      <point x="146" y="-258" type="line"/>
      <point x="146" y="774" type="line"/>
      <point x="95" y="774" type="line"/>
    </contour>
  </outline>
</glyph>
<glyph name="asciitilde" format="2">
  <advance width="506"/>
  <unicode hex="007E"/>
  <outline>
    <contour>
      <point x="344" y="269" type="curve" smooth="yes"/>
      <point x="387" y="269"/>
      <point x="432" y="296"/>
      <point x="466" y="357" type="curve"/>
      <point x="426" y="387" type="line"/>
      <point x="402" y="341"/>
      <point x="376" y="323"/>
      <point x="346" y="323" type="curve" smooth="yes"/>
      <point x="287" y="323"/>
      <point x="242" y="412"/>
      <point x="161" y="412" type="curve" smooth="yes"/>
      <point x="118" y="412"/>
      <point x="73" y="385"/>
      <point x="39" y="322" type="curve"/>
      <point x="79" y="294" type="line"/>
      <point x="103" y="340"/>
      <point x="129" y="358"/>
      <point x="159" y="358" type="curve" smooth="yes"/>
      <point x="218" y="358"/>
      <point x="263" y="269"/>
    </contour>
  </outline>
</glyph>
<glyph name="cent" format="2">
  <advance width="506"/>
  <unicode hex="00A2"/>
  <outline>
    <contour>
      <point x="300" y="76" type="curve" smooth="yes"/>
      <point x="361" y="76"/>
      <point x="417" y="102"/>
      <point x="461" y="141" type="curve"/>
      <point x="429" y="185" type="line"/>
      <point x="397" y="158"/>
      <point x="355" y="134"/>
      <point x="305" y="134" type="curve" smooth="yes"/>
      <point x="199" y="134"/>
      <point x="132" y="208"/>
      <point x="132" y="320" type="curve" smooth="yes"/>
      <point x="132" y="432"/>
      <point x="204" y="506"/>
      <point x="307" y="506" type="curve" smooth="yes"/>
      <point x="350" y="506"/>
      <point x="385" y="488"/>
      <point x="416" y="460" type="curve"/>
      <point x="450" y="504" type="line"/>
      <point x="417" y="536"/>
      <point x="371" y="565"/>
      <point x="304" y="565" type="curve" smooth="yes"/>
      <point x="173" y="565"/>
      <point x="63" y="478"/>
      <point x="63" y="320" type="curve" smooth="yes"/>
      <point x="63" y="164"/>
      <point x="162" y="76"/>
    </contour>
    <contour>
      <point x="267" y="-31" type="line"/>
      <point x="314" y="-31" type="line"/>
      <point x="314" y="674" type="line"/>
      <point x="267" y="674" type="line"/>
    </contour>
  </outline>
</glyph>
<glyph name="sterling" format="2">
  <advance width="506"/>
  <unicode hex="00A3"/>
  <outline>
    <contour>
      <point x="56" y="0" type="line"/>
      <point x="457" y="0" type="line"/>
      <point x="457" y="60" type="line"/>
      <point x="161" y="60" type="line"/>
      <point x="161" y="64" type="line"/>
      <point x="205" y="108"/>
      <point x="229" y="155"/>
      <point x="229" y="233" type="curve" smooth="yes"/>
      <point x="229" y="331"/>
      <point x="183" y="402"/>
      <point x="183" y="486" type="curve" smooth="yes"/>
      <point x="183" y="559"/>
      <point x="226" y="613"/>
      <point x="304" y="613" type="curve" smooth="yes"/>
      <point x="353" y="613"/>
      <point x="387" y="588"/>
      <point x="414" y="555" type="curve"/>
      <point x="456" y="596" type="line"/>
      <point x="421" y="638"/>
      <point x="373" y="672"/>
      <point x="300" y="672" type="curve" smooth="yes"/>
      <point x="188" y="672"/>
      <point x="115" y="601"/>
      <point x="115" y="487" type="curve" smooth="yes"/>
      <point x="115" y="402"/>
      <point x="166" y="321"/>
      <point x="166" y="233" type="curve" smooth="yes"/>
      <point x="166" y="155"/>
      <point x="129" y="82"/>
      <point x="56" y="42" type="curve"/>
    </contour>
    <contour>
      <point x="55" y="297" type="line"/>
      <point x="378" y="297" type="line"/>
      <point x="378" y="347" type="line"/>
      <point x="123" y="347" type="line"/>
      <point x="55" y="344" type="line"/>
    </contour>
  </outline>
</glyph>
<glyph name="yen" format="2">
  <advance width="506"/>
  <unicode hex="00A5"/>
  <outline>
    <contour>
      <point x="217" y="0" type="line"/>
      <point x="286" y="0" type="line"/>
      <point x="286" y="166" type="line"/>
      <point x="457" y="166" type="line"/>
      <point x="457" y="209" type="line"/>
      <point x="286" y="209" type="line"/>
      <point x="286" y="279" type="line"/>
      <point x="457" y="279" type="line"/>
      <point x="457" y="322" type="line"/>
      <point x="305" y="322" type="line"/>
      <point x="479" y="659" type="line"/>
      <point x="408" y="659" type="line"/>
      <point x="321" y="473" type="line"/>
      <point x="299" y="428"/>
      <point x="279" y="382"/>
      <point x="255" y="333" type="curve"/>
      <point x="251" y="333" type="line"/>
      <point x="228" y="382"/>
      <point x="208" y="428"/>
      <point x="187" y="473" type="curve" smooth="yes"/>
      <point x="100" y="659" type="line"/>
      <point x="26" y="659" type="line"/>
      <point x="198" y="322" type="line"/>
      <point x="48" y="322" type="line"/>
      <point x="48" y="279" type="line"/>
      <point x="217" y="279" type="line"/>
      <point x="217" y="209" type="line"/>
      <point x="48" y="209" type="line"/>
      <point x="48" y="166" type="line"/>
      <point x="217" y="166" type="line"/>
    </contour>
  </outline>
</glyph>
<glyph name="brokenbar" format="2">
  <advance width="242"/>
  <unicode hex="00A6"/>
  <outline>
    <contour>
      <point x="95" y="341" type="line"/>
      <point x="146" y="341" type="line"/>
      <point x="146" y="774" type="line"/>
      <point x="95" y="774" type="line"/>
    </contour>
    <contour>
      <point x="95" y="-247" type="line"/>
      <point x="146" y="-247" type="line"/>
      <point x="146" y="186" type="line"/>
      <point x="95" y="186" type="line"/>
    </contour>
  </outline>
</glyph>
<glyph name="section" format="2">
  <advance width="506"/>
  <unicode hex="00A7"/>
  <outline>
    <contour>
      <point x="343" y="146" type="line"/>
      <point x="409" y="178"/>
      <point x="457" y="215"/>
      <point x="457" y="293" type="curve" smooth="yes"/>
      <point x="457" y="484"/>
      <point x="169" y="458"/>
      <point x="169" y="579" type="curve" smooth="yes"/>
      <point x="169" y="616"/>
      <point x="194" y="650"/>
      <point x="257" y="650" type="curve" smooth="yes"/>
      <point x="305" y="650"/>
      <point x="341" y="629"/>
      <point x="373" y="602" type="curve"/>
      <point x="408" y="647" type="line"/>
      <point x="369" y="679"/>
      <point x="316" y="705"/>
      <point x="255" y="705" type="curve" smooth="yes"/>
      <point x="154" y="705"/>
      <point x="105" y="642"/>
      <point x="105" y="576" type="curve" smooth="yes"/>
      <point x="105" y="405"/>
      <point x="395" y="438"/>
      <point x="395" y="288" type="curve" smooth="yes"/>
      <point x="395" y="231"/>
      <point x="363" y="208"/>
      <point x="305" y="184" type="curve"/>
    </contour>
    <contour>
      <point x="242" y="-61" type="curve" smooth="yes"/>
      <point x="332" y="-61"/>
      <point x="401" y="-3"/>
      <point x="401" y="74" type="curve" smooth="yes"/>
      <point x="401" y="250"/>
      <point x="110" y="216"/>
      <point x="110" y="362" type="curve" smooth="yes"/>
      <point x="110" y="413"/>
      <point x="143" y="441"/>
      <point x="192" y="465" type="curve"/>
      <point x="160" y="502" type="line"/>
      <point x="97" y="475"/>
      <point x="48" y="428"/>
      <point x="48" y="358" type="curve" smooth="yes"/>
      <point x="48" y="167"/>
      <point x="336" y="198"/>
      <point x="336" y="71" type="curve" smooth="yes"/>
      <point x="336" y="29"/>
      <point x="301" y="-6"/>
      <point x="242" y="-6" type="curve" smooth="yes"/>
      <point x="184" y="-6"/>
      <point x="146" y="15"/>
      <point x="112" y="48" type="curve"/>
      <point x="68" y="8" type="line"/>
      <point x="110" y="-34"/>
      <point x="170" y="-61"/>
    </contour>
  </outline>
</glyph>
<glyph name="copyright" format="2">
  <advance width="767"/>
  <unicode hex="00A9"/>
  <outline>
    <contour>
      <point x="383" y="-11" type="curve" smooth="yes"/>
      <point x="563" y="-11"/>
      <point x="716" y="123"/>
      <point x="716" y="333" type="curve" smooth="yes"/>
      <point x="716" y="542"/>
      <point x="563" y="674"/>
      <point x="383" y="674" type="curve" smooth="yes"/>
      <point x="204" y="674"/>
      <point x="51" y="542"/>
      <point x="51" y="333" type="curve" smooth="yes"/>
      <point x="51" y="123"/>
      <point x="204" y="-11"/>
    </contour>
    <contour>
      <point x="383" y="26" type="curve" smooth="yes"/>
      <point x="226" y="26"/>
      <point x="94" y="150"/>
      <point x="94" y="333" type="curve" smooth="yes"/>
      <point x="94" y="515"/>
      <point x="226" y="636"/>
      <point x="383" y="636" type="curve" smooth="yes"/>
      <point x="540" y="636"/>
      <point x="672" y="515"/>
      <point x="672" y="333" type="curve" smooth="yes"/>
      <point x="672" y="150"/>
      <point x="540" y="26"/>
    </contour>
    <contour>
      <point x="390" y="129" type="curve" smooth="yes"/>
      <point x="454" y="129"/>
      <point x="493" y="155"/>
      <point x="531" y="188" type="curve"/>
      <point x="504" y="226" type="line"/>
      <point x="473" y="199"/>
      <point x="439" y="178"/>
      <point x="393" y="178" type="curve" smooth="yes"/>
      <point x="315" y="178"/>
      <point x="264" y="237"/>
      <point x="264" y="333" type="curve" smooth="yes"/>
      <point x="264" y="419"/>
      <point x="317" y="478"/>
      <point x="396" y="478" type="curve" smooth="yes"/>
      <point x="435" y="478"/>
      <point x="461" y="462"/>
      <point x="490" y="434" type="curve"/>
      <point x="521" y="470" type="line"/>
      <point x="488" y="503"/>
      <point x="451" y="527"/>
      <point x="394" y="527" type="curve" smooth="yes"/>
      <point x="295" y="527"/>
      <point x="206" y="453"/>
      <point x="206" y="333" type="curve" smooth="yes"/>
      <point x="206" y="204"/>
      <point x="289" y="129"/>
    </contour>
  </outline>
</glyph>
<glyph name="logicalnot" format="2">
  <advance width="506"/>
  <unicode hex="00AC"/>
  <outline>
    <contour>
      <point x="413" y="109" type="line"/>
      <point x="470" y="109" type="line"/>
      <point x="470" y="367" type="line"/>
      <point x="35" y="367" type="line"/>
      <point x="35" y="314" type="line"/>
      <point x="413" y="314" type="line"/>
    </contour>
  </outline>
</glyph>
<glyph name="registered" format="2">
  <advance width="427"/>
  <unicode hex="00AE"/>
  <outline>
    <contour>
      <point x="213" y="332" type="curve" smooth="yes"/>
      <point x="318" y="332"/>
      <point x="405" y="413"/>
      <point x="405" y="533" type="curve" smooth="yes"/>
      <point x="405" y="654"/>
      <point x="318" y="736"/>
      <point x="213" y="736" type="curve" smooth="yes"/>
      <point x="108" y="736"/>
      <point x="21" y="654"/>
      <point x="21" y="533" type="curve" smooth="yes"/>
      <point x="21" y="413"/>
      <point x="108" y="332"/>
    </contour>
    <contour>
      <point x="213" y="366" type="curve" smooth="yes"/>
      <point x="127" y="366"/>
      <point x="59" y="435"/>
      <point x="59" y="533" type="curve" smooth="yes"/>
      <point x="59" y="631"/>
      <point x="127" y="702"/>
      <point x="213" y="702" type="curve" smooth="yes"/>
      <point x="300" y="702"/>
      <point x="368" y="631"/>
      <point x="368" y="533" type="curve" smooth="yes"/>
      <point x="368" y="435"/>
      <point x="300" y="366"/>
    </contour>
    <contour>
      <point x="140" y="431" type="line"/>
      <point x="179" y="431" type="line"/>
      <point x="179" y="506" type="line"/>
      <point x="224" y="506" type="line"/>
      <point x="262" y="431" type="line"/>
      <point x="305" y="431" type="line"/>
      <point x="256" y="518" type="line"/>
      <point x="280" y="526"/>
      <point x="296" y="550"/>
      <point x="296" y="575" type="curve" smooth="yes"/>
      <point x="296" y="625"/>
      <point x="258" y="642"/>
      <point x="216" y="642" type="curve" smooth="yes"/>
      <point x="140" y="642" type="line"/>
    </contour>
    <contour>
      <point x="179" y="537" type="line"/>
      <point x="179" y="610" type="line"/>
      <point x="210" y="610" type="line" smooth="yes"/>
      <point x="243" y="610"/>
      <point x="255" y="595"/>
      <point x="255" y="573" type="curve" smooth="yes"/>
      <point x="255" y="548"/>
      <point x="236" y="537"/>
      <point x="207" y="537" type="curve" smooth="yes"/>
    </contour>
  </outline>
</glyph>
<glyph name="degree" format="2">
  <advance width="334"/>
  <unicode hex="00B0"/>
  <outline>
    <contour>
      <point x="167" y="450" type="curve" smooth="yes"/>
      <point x="233" y="450"/>
      <point x="292" y="500"/>
      <point x="292" y="578" type="curve" smooth="yes"/>
      <point x="292" y="658"/>
      <point x="233" y="707"/>
      <point x="167" y="707" type="curve" smooth="yes"/>
      <point x="101" y="707"/>
      <point x="42" y="658"/>
      <point x="42" y="578" type="curve" smooth="yes"/>
      <point x="42" y="500"/>
      <point x="101" y="450"/>
    </contour>
    <contour>
      <point x="167" y="492" type="curve" smooth="yes"/>
      <point x="120" y="492"/>
      <point x="87" y="528"/>
      <point x="87" y="578" type="curve" smooth="yes"/>
      <point x="87" y="629"/>
      <point x="120" y="665"/>
      <point x="167" y="665" type="curve" smooth="yes"/>
      <point x="214" y="665"/>
      <point x="247" y="629"/>
      <point x="247" y="578" type="curve" smooth="yes"/>
      <point x="247" y="528"/>
      <point x="214" y="492"/>
    </contour>
  </outline>
</glyph>
<glyph name="plusminus" format="2">
  <advance width="506"/>
  <unicode hex="00B1"/>
  <outline>
    <contour>
      <point x="224" y="123" type="line"/>
      <point x="281" y="123" type="line"/>
      <point x="281" y="316" type="line"/>
      <point x="470" y="316" type="line"/>
      <point x="470" y="370" type="line"/>
      <point x="281" y="370" type="line"/>
      <point x="281" y="572" type="line"/>
      <point x="224" y="572" type="line"/>
      <point x="224" y="370" type="line"/>
      <point x="35" y="370" type="line"/>
      <point x="35" y="316" type="line"/>
      <point x="224" y="316" type="line"/>
    </contour>
    <contour>
      <point x="35" y="0" type="line"/>
      <point x="470" y="0" type="line"/>
      <point x="470" y="53" type="line"/>
      <point x="35" y="53" type="line"/>
    </contour>
  </outline>
</glyph>
<glyph name="Eth" format="2">
  <advance width="653"/>
  <unicode hex="00D0"/>
  <outline>
    <component base="D" xOffset="22"/>
    <contour>
      <point x="35" y="335" type="line"/>
      <point x="348" y="335" type="line"/>
      <point x="348" y="378" type="line"/>
      <point x="120" y="378" type="line"/>
      <point x="35" y="375" type="line"/>
    </contour>
  </outline>
</glyph>
<glyph name="multiply" format="2">
  <advance width="506"/>
  <unicode hex="00D7"/>
  <outline>
    <contour>
      <point x="253" y="241" type="line"/>
      <point x="426" y="64" type="line"/>
      <point x="471" y="109" type="line"/>
      <point x="298" y="287" type="line"/>
      <point x="474" y="467" type="line"/>
      <point x="432" y="511" type="line"/>
      <point x="255" y="330" type="line"/>
      <point x="78" y="512" type="line"/>
      <point x="33" y="466" type="line"/>
      <point x="211" y="284" type="line"/>
      <point x="39" y="108" type="line"/>
      <point x="81" y="65" type="line"/>
    </contour>
  </outline>
</glyph>
<glyph name="Oslash" format="2">
  <advance width="681"/>
  <unicode hex="00D8"/>
  <anchor x="341" y="702" name="aboveUC"/>
  <outline>
    <component base="O" xOffset="3"/>
    <contour>
      <point x="94" y="-27" type="line"/>
      <point x="629" y="676" type="line"/>
      <point x="589" y="706" type="line"/>
      <point x="54" y="2" type="line"/>
    </contour>
  </outline>
</glyph>
<glyph name="divide" format="2">
  <advance width="506"/>
  <unicode hex="00F7"/>
  <outline>
    <contour>
      <point x="197" y="118" type="line"/>
      <point x="197" y="7" type="line"/>
      <point x="308" y="7" type="line"/>
      <point x="308" y="118" type="line"/>
    </contour>
    <contour>
      <point x="197" y="553" type="line"/>
      <point x="197" y="442" type="line"/>
      <point x="308" y="442" type="line"/>
      <point x="308" y="553" type="line"/>
    </contour>
    <contour>
      <point x="35" y="254" type="line"/>
      <point x="470" y="254" type="line"/>
      <point x="470" y="307" type="line"/>
      <point x="35" y="307" type="line"/>
    </contour>
  </outline>
</glyph>
<glyph name="florin" format="2">
  <advance width="506"/>
  <unicode hex="0192"/>
  <outline>
    <contour>
      <point x="87" y="-100" type="curve" smooth="yes"/>
      <point x="196" y="-100"/>
      <point x="238" y="-17"/>
      <point x="252" y="109" type="curve" smooth="yes"/>
      <point x="294" y="486" type="line" smooth="yes"/>
      <point x="302" y="562"/>
      <point x="327" y="633"/>
      <point x="392" y="633" type="curve" smooth="yes"/>
      <point x="419" y="633"/>
      <point x="438" y="625"/>
      <point x="453" y="618" type="curve"/>
      <point x="469" y="673" type="line"/>
      <point x="450" y="681"/>
      <point x="422" y="691"/>
      <point x="390" y="691" type="curve" smooth="yes"/>
      <point x="286" y="691"/>
      <point x="241" y="615"/>
      <point x="226" y="481" type="curve" smooth="yes"/>
      <point x="187" y="121" type="line" smooth="yes"/>
      <point x="176" y="19"/>
      <point x="150" y="-42"/>
      <point x="82" y="-43" type="curve" smooth="yes"/>
      <point x="63" y="-42"/>
      <point x="46" y="-39"/>
      <point x="30" y="-31" type="curve"/>
      <point x="15" y="-84" type="line"/>
      <point x="33" y="-94"/>
      <point x="57" y="-100"/>
    </contour>
    <contour>
      <point x="120" y="365" type="line"/>
      <point x="421" y="365" type="line"/>
      <point x="421" y="420" type="line"/>
      <point x="191" y="420" type="line"/>
      <point x="120" y="416" type="line"/>
    </contour>
  </outline>
</glyph>
<glyph name="gravecomb" format="2">
  <unicode hex="0300"/>
  <anchor x="250" y="720" name="_U"/>
  <outline>
    <contour>
      <point x="100" y="812" type="line"/>
      <point x="368" y="728" type="line"/>
      <point x="388" y="792" type="line"/>
      <point x="120" y="876" type="line"/>
    </contour>
  </outline>
</glyph>
<glyph name="figuredash" format="2">
  <advance width="506"/>
  <unicode hex="2012"/>
  <outline>
    <contour>
      <point x="42" y="234" type="line"/>
      <point x="465" y="234" type="line"/>
      <point x="465" y="284" type="line"/>
      <point x="42" y="284" type="line"/>
    </contour>
  </outline>
</glyph>
<glyph name="dagger" format="2">
  <advance width="455"/>
  <unicode hex="2020"/>
  <outline>
    <contour>
      <point x="196" y="-82" type="line"/>
      <point x="258" y="-82" type="line"/>
      <point x="253" y="520" type="line"/>
      <point x="396" y="516" type="line"/>
      <point x="396" y="577" type="line"/>
      <point x="253" y="573" type="line"/>
      <point x="258" y="735" type="line"/>
      <point x="196" y="735" type="line"/>
      <point x="201" y="573" type="line"/>
      <point x="58" y="577" type="line"/>
      <point x="58" y="516" type="line"/>
      <point x="201" y="520" type="line"/>
    </contour>
  </outline>
</glyph>
<glyph name="daggerdbl" format="2">
  <advance width="455"/>
  <unicode hex="2021"/>
  <outline>
    <contour>
      <point x="196" y="-82" type="line"/>
      <point x="258" y="-82" type="line"/>
      <point x="253" y="79" type="line"/>
      <point x="396" y="75" type="line"/>
      <point x="396" y="136" type="line"/>
      <point x="253" y="131" type="line"/>
      <point x="258" y="326" type="line"/>
      <point x="253" y="521" type="line"/>
      <point x="396" y="516" type="line"/>
      <point x="396" y="577" type="line"/>
      <point x="253" y="573" type="line"/>
      <point x="258" y="735" type="line"/>
      <point x="196" y="735" type="line"/>
      <point x="201" y="573" type="line"/>
      <point x="58" y="577" type="line"/>
      <point x="58" y="516" type="line"/>
      <point x="201" y="521" type="line"/>
      <point x="196" y="326" type="line"/>
      <point x="201" y="131" type="line"/>
      <point x="58" y="136" type="line"/>
      <point x="58" y="75" type="line"/>
      <point x="201" y="79" type="line"/>
    </contour>
  </outline>
</glyph>
<glyph name="fraction" format="2">
  <advance width="86"/>
  <unicode hex="2044"/>
  <outline>
    <contour>
      <point x="-171" y="-12" type="line"/>
      <point x="-121" y="-12" type="line"/>
      <point x="255" y="691" type="line"/>
      <point x="204" y="691" type="line"/>
    </contour>
  </outline>
</glyph>
<glyph name="euro" format="2">
  <advance width="506"/>
  <unicode hex="20AC"/>
  <outline>
    <contour>
      <point x="324" y="-12" type="curve" smooth="yes"/>
      <point x="400" y="-12"/>
      <point x="455" y="23"/>
      <point x="500" y="84" type="curve"/>
      <point x="458" y="121" type="line"/>
      <point x="420" y="70"/>
      <point x="382" y="44"/>
      <point x="329" y="44" type="curve" smooth="yes"/>
      <point x="220" y="44"/>
      <point x="157" y="156"/>
      <point x="157" y="331" type="curve" smooth="yes"/>
      <point x="157" y="505"/>
      <point x="222" y="615"/>
      <point x="338" y="615" type="curve" smooth="yes"/>
      <point x="383" y="615"/>
      <point x="418" y="589"/>
      <point x="448" y="551" type="curve"/>
      <point x="490" y="591" type="line"/>
      <point x="456" y="636"/>
      <point x="401" y="672"/>
      <point x="339" y="672" type="curve" smooth="yes"/>
      <point x="185" y="672"/>
      <point x="85" y="541"/>
      <point x="85" y="330" type="curve" smooth="yes"/>
      <point x="85" y="117"/>
      <point x="182" y="-12"/>
    </contour>
    <contour>
      <point x="23" y="247" type="line"/>
      <point x="393" y="247" type="line"/>
      <point x="393" y="291" type="line"/>
      <point x="93" y="291" type="line"/>
      <point x="23" y="286" type="line"/>
    </contour>
    <contour>
      <point x="23" y="364" type="line"/>
      <point x="434" y="364" type="line"/>
      <point x="434" y="408" type="line"/>
      <point x="94" y="408" type="line"/>
      <point x="23" y="403" type="line"/>
    </contour>
  </outline>
</glyph>
<glyph name="trademark" format="2">
  <advance width="646"/>
  <unicode hex="2122"/>
  <outline>
    <contour>
      <point x="108" y="379" type="line"/>
      <point x="161" y="379" type="line"/>
      <point x="161" y="650" type="line"/>
      <point x="267" y="650" type="line"/>
      <point x="267" y="698" type="line"/>
      <point x="2" y="698" type="line"/>
      <point x="2" y="650" type="line"/>
      <point x="108" y="650" type="line"/>
    </contour>
    <contour>
      <point x="319" y="379" type="line"/>
      <point x="369" y="379" type="line"/>
      <point x="369" y="531" type="line"/>
      <point x="363" y="636" type="line"/>
      <point x="367" y="636" type="line"/>
      <point x="446" y="428" type="line"/>
      <point x="489" y="428" type="line"/>
      <point x="568" y="636" type="line"/>
      <point x="573" y="636" type="line"/>
      <point x="566" y="531" type="line"/>
      <point x="566" y="379" type="line"/>
      <point x="616" y="379" type="line"/>
      <point x="616" y="698" type="line"/>
      <point x="550" y="698" type="line"/>
      <point x="500" y="574" type="line"/>
      <point x="470" y="490" type="line"/>
      <point x="466" y="490" type="line"/>
      <point x="436" y="574" type="line"/>
      <point x="385" y="698" type="line"/>
      <point x="319" y="698" type="line"/>
    </contour>
  </outline>
</glyph>
<glyph name="minus" format="2">
  <advance width="506"/>
  <unicode hex="2212"/>
  <outline>
    <contour>
      <point x="35" y="314" type="line"/>
      <point x="470" y="314" type="line"/>
      <point x="470" y="367" type="line"/>
      <point x="35" y="367" type="line"/>
    </contour>
  </outline>
</glyph>
<glyph name="notequal" format="2">
  <advance width="506"/>
  <unicode hex="2260"/>
  <outline>
    <contour>
      <point x="64" y="73" type="line"/>
      <point x="119" y="73" type="line"/>
      <point x="199" y="205" type="line"/>
      <point x="470" y="205" type="line"/>
      <point x="470" y="259" type="line"/>
      <point x="230" y="259" type="line"/>
      <point x="329" y="422" type="line"/>
      <point x="470" y="422" type="line"/>
      <point x="470" y="476" type="line"/>
      <point x="361" y="476" type="line"/>
      <point x="441" y="608" type="line"/>
      <point x="386" y="608" type="line"/>
      <point x="306" y="476" type="line"/>
      <point x="35" y="476" type="line"/>
      <point x="35" y="422" type="line"/>
      <point x="275" y="422" type="line"/>
      <point x="176" y="259" type="line"/>
      <point x="35" y="259" type="line"/>
      <point x="35" y="205" type="line"/>
      <point x="144" y="205" type="line"/>
    </contour>
  </outline>
</glyph>
<glyph name="blank" format="2">
  <advance width="222"/>
  <unicode hex="2423"/>
  <outline>
    <contour>
      <point x="222" y="-124" type="line"/>
      <point x="222" y="0" type="line"/>
      <point x="183" y="0" type="line"/>
      <point x="183" y="-85" type="line"/>
      <point x="39" y="-85" type="line"/>
      <point x="39" y="0" type="line"/>
      <point x="0" y="0" type="line"/>
      <point x="0" y="-124" type="line"/>
    </contour>
  </outline>
</glyph>
<glyph name="sidebearingright" format="2">
  <advance width="166"/>
  <unicode hex="F131"/>
  <outline>
    <contour>
      <point x="0" y="0" type="line"/>
      <point x="0" y="-144" type="line"/>
      <point x="19" y="-144" type="line"/>
      <point x="19" y="-19" type="line"/>
      <point x="144" y="-19" type="line"/>
      <point x="144" y="0" type="line"/>
    </contour>
  </outline>
</glyph>
<glyph name="objectReplacementCharacter" format="2">
  <advance width="1171"/>
  <unicode hex="FFFC"/>
  <outline>
    <contour>
      <point x="48" y="830" type="line"/>
      <point x="97" y="830" type="line"/>
      <point x="97" y="927" type="line"/>
      <point x="195" y="927" type="line"/>
      <point x="195" y="976" type="line"/>
      <point x="48" y="976" type="line"/>
    </contour>
    <contour>
      <point x="48" y="537" type="line"/>
      <point x="97" y="537" type="line"/>
      <point x="97" y="634" type="line"/>
      <point x="48" y="634" type="line"/>
    </contour>
    <contour>
      <point x="195" y="-97" type="line"/>
      <point x="195" y="-48" type="line"/>
      <point x="97" y="-48" type="line"/>
      <point x="97" y="48" type="line"/>
      <point x="48" y="48" type="line"/>
      <point x="48" y="-97" type="line"/>
    </contour>
    <contour>
      <point x="976" y="976" type="line"/>
      <point x="976" y="927" type="line"/>
      <point x="1074" y="927" type="line"/>
      <point x="1074" y="830" type="line"/>
      <point x="1123" y="830" type="line"/>
      <point x="1123" y="976" type="line"/>
    </contour>
    <contour>
      <point x="683" y="976" type="line"/>
      <point x="683" y="927" type="line"/>
      <point x="781" y="927" type="line"/>
      <point x="781" y="976" type="line"/>
    </contour>
    <contour>
      <point x="537" y="976" type="line"/>
      <point x="537" y="927" type="line"/>
      <point x="634" y="927" type="line"/>
      <point x="634" y="976" type="line"/>
    </contour>
    <contour>
      <point x="390" y="976" type="line"/>
      <point x="390" y="927" type="line"/>
      <point x="488" y="927" type="line"/>
      <point x="488" y="976" type="line"/>
    </contour>
    <contour>
      <point x="244" y="976" type="line"/>
      <point x="244" y="927" type="line"/>
      <point x="341" y="927" type="line"/>
      <point x="341" y="976" type="line"/>
    </contour>
    <contour>
      <point x="48" y="683" type="line"/>
      <point x="97" y="683" type="line"/>
      <point x="97" y="781" type="line"/>
      <point x="48" y="781" type="line"/>
    </contour>
    <contour>
      <point x="48" y="390" type="line"/>
      <point x="97" y="390" type="line"/>
      <point x="97" y="488" type="line"/>
      <point x="48" y="488" type="line"/>
    </contour>
    <contour>
      <point x="48" y="244" type="line"/>
      <point x="97" y="244" type="line"/>
      <point x="97" y="341" type="line"/>
      <point x="48" y="341" type="line"/>
    </contour>
    <contour>
      <point x="48" y="97" type="line"/>
      <point x="97" y="97" type="line"/>
      <point x="97" y="195" type="line"/>
      <point x="48" y="195" type="line"/>
    </contour>
    <contour>
      <point x="341" y="-97" type="line"/>
      <point x="341" y="-48" type="line"/>
      <point x="244" y="-48" type="line"/>
      <point x="244" y="-97" type="line"/>
    </contour>
    <contour>
      <point x="488" y="-97" type="line"/>
      <point x="488" y="-48" type="line"/>
      <point x="390" y="-48" type="line"/>
      <point x="390" y="-97" type="line"/>
    </contour>
    <contour>
      <point x="634" y="-97" type="line"/>
      <point x="634" y="-48" type="line"/>
      <point x="537" y="-48" type="line"/>
      <point x="537" y="-97" type="line"/>
    </contour>
    <contour>
      <point x="781" y="-97" type="line"/>
      <point x="781" y="-48" type="line"/>
      <point x="683" y="-48" type="line"/>
      <point x="683" y="-97" type="line"/>
    </contour>
    <contour>
      <point x="1123" y="48" type="line"/>
      <point x="1074" y="48" type="line"/>
      <point x="1074" y="-48" type="line"/>
      <point x="976" y="-48" type="line"/>
      <point x="976" y="-97" type="line"/>
      <point x="1123" y="-97" type="line"/>
    </contour>
    <contour>
      <point x="1074" y="537" type="line"/>
      <point x="1123" y="537" type="line"/>
      <point x="1123" y="634" type="line"/>
      <point x="1074" y="634" type="line"/>
    </contour>
    <contour>
      <point x="1074" y="683" type="line"/>
      <point x="1123" y="683" type="line"/>
      <point x="1123" y="781" type="line"/>
      <point x="1074" y="781" type="line"/>
    </contour>
    <contour>
      <point x="1074" y="390" type="line"/>
      <point x="1123" y="390" type="line"/>
      <point x="1123" y="488" type="line"/>
      <point x="1074" y="488" type="line"/>
    </contour>
    <contour>
      <point x="1074" y="244" type="line"/>
      <point x="1123" y="244" type="line"/>
      <point x="1123" y="341" type="line"/>
      <point x="1074" y="341" type="line"/>
    </contour>
    <contour>
      <point x="1074" y="97" type="line"/>
      <point x="1123" y="97" type="line"/>
      <point x="1123" y="195" type="line"/>
      <point x="1074" y="195" type="line"/>
    </contour>
    <contour>
      <point x="830" y="976" type="line"/>
      <point x="830" y="927" type="line"/>
      <point x="927" y="927" type="line"/>
      <point x="927" y="976" type="line"/>
    </contour>
    <contour>
      <point x="927" y="-97" type="line"/>
      <point x="927" y="-48" type="line"/>
      <point x="830" y="-48" type="line"/>
      <point x="830" y="-97" type="line"/>
    </contour>
    <contour>
      <point x="454" y="437" type="curve" smooth="yes"/>
      <point x="454" y="512"/>
      <point x="417" y="567"/>
      <point x="337" y="567" type="curve" smooth="yes"/>
      <point x="257" y="567"/>
      <point x="219" y="512"/>
      <point x="219" y="437" type="curve" smooth="yes"/>
      <point x="219" y="364"/>
      <point x="257" y="297"/>
      <point x="337" y="297" type="curve" smooth="yes"/>
      <point x="417" y="297"/>
      <point x="454" y="364"/>
    </contour>
    <contour>
      <point x="417" y="437" type="curve" smooth="yes"/>
      <point x="417" y="383"/>
      <point x="400" y="329"/>
      <point x="337" y="329" type="curve" smooth="yes"/>
      <point x="274" y="329"/>
      <point x="256" y="383"/>
      <point x="256" y="437" type="curve" smooth="yes"/>
      <point x="256" y="492"/>
      <point x="274" y="536"/>
      <point x="337" y="536" type="curve" smooth="yes"/>
      <point x="400" y="536"/>
      <point x="417" y="492"/>
    </contour>
    <contour>
      <point x="716" y="374" type="curve" smooth="yes"/>
      <point x="716" y="413"/>
      <point x="688" y="433"/>
      <point x="662" y="441" type="curve"/>
      <point x="693" y="452"/>
      <point x="707" y="472"/>
      <point x="707" y="498" type="curve" smooth="yes"/>
      <point x="707" y="542"/>
      <point x="670" y="562"/>
      <point x="628" y="562" type="curve" smooth="yes"/>
      <point x="524" y="562" type="line"/>
      <point x="524" y="302" type="line"/>
      <point x="638" y="302" type="line" smooth="yes"/>
      <point x="679" y="302"/>
      <point x="716" y="333"/>
    </contour>
    <contour>
      <point x="673" y="493" type="curve" smooth="yes"/>
      <point x="673" y="471"/>
      <point x="660" y="454"/>
      <point x="617" y="454" type="curve" smooth="yes"/>
      <point x="561" y="454" type="line"/>
      <point x="561" y="531" type="line"/>
      <point x="617" y="531" type="line" smooth="yes"/>
      <point x="661" y="531"/>
      <point x="673" y="514"/>
    </contour>
    <contour>
      <point x="681" y="378" type="curve" smooth="yes"/>
      <point x="681" y="352"/>
      <point x="654" y="333"/>
      <point x="617" y="333" type="curve" smooth="yes"/>
      <point x="561" y="333" type="line"/>
      <point x="561" y="424" type="line"/>
      <point x="615" y="424" type="line" smooth="yes"/>
      <point x="658" y="424"/>
      <point x="681" y="407"/>
    </contour>
    <contour>
      <point x="936" y="374" type="curve"/>
      <point x="936" y="558" type="line"/>
      <point x="900" y="558" type="line"/>
      <point x="900" y="374" type="line" smooth="yes"/>
      <point x="900" y="341"/>
      <point x="880" y="324"/>
      <point x="859" y="324" type="curve" smooth="yes"/>
      <point x="837" y="324"/>
      <point x="817" y="333"/>
      <point x="817" y="367" type="curve"/>
      <point x="782" y="367" type="line"/>
      <point x="782" y="324"/>
      <point x="812" y="292"/>
      <point x="857" y="292" type="curve" smooth="yes"/>
      <point x="904" y="292"/>
      <point x="936" y="326"/>
    </contour>
  </outline>
</glyph>
<glyph name="replacementCharacter" format="2">
  <advance width="687"/>
  <unicode hex="FFFD"/>
  <outline>
    <contour>
      <point x="477" y="441" type="curve"/>
      <point x="477" y="388"/>
      <point x="444" y="350"/>
      <point x="422" y="326" type="curve" smooth="yes"/>
      <point x="370" y="270"/>
      <point x="349" y="243"/>
      <point x="346" y="178" type="curve"/>
      <point x="330" y="178" type="line"/>
      <point x="334" y="234"/>
      <point x="349" y="280"/>
      <point x="379" y="331" type="curve" smooth="yes"/>
      <point x="393" y="356"/>
      <point x="412" y="399"/>
      <point x="412" y="436" type="curve" smooth="yes"/>
      <point x="412" y="506"/>
      <point x="367" y="533"/>
      <point x="330" y="533" type="curve" smooth="yes"/>
      <point x="285" y="533"/>
      <point x="263" y="507"/>
      <point x="263" y="486" type="curve" smooth="yes"/>
      <point x="263" y="467"/>
      <point x="286" y="442"/>
      <point x="286" y="426" type="curve" smooth="yes"/>
      <point x="286" y="407"/>
      <point x="269" y="396"/>
      <point x="257" y="396" type="curve" smooth="yes"/>
      <point x="246" y="396"/>
      <point x="219" y="406"/>
      <point x="219" y="450" type="curve" smooth="yes"/>
      <point x="219" y="503"/>
      <point x="263" y="552"/>
      <point x="345" y="552" type="curve" smooth="yes"/>
      <point x="421" y="552"/>
      <point x="477" y="510"/>
    </contour>
    <contour>
      <point x="380" y="96" type="curve"/>
      <point x="380" y="70"/>
      <point x="360" y="56"/>
      <point x="342" y="56" type="curve" smooth="yes"/>
      <point x="321" y="56"/>
      <point x="301" y="71"/>
      <point x="301" y="96" type="curve" smooth="yes"/>
      <point x="301" y="117"/>
      <point x="320" y="135"/>
      <point x="342" y="135" type="curve" smooth="yes"/>
      <point x="361" y="135"/>
      <point x="380" y="119"/>
    </contour>
    <contour>
      <point x="687" y="329" type="line"/>
      <point x="342" y="671" type="line"/>
      <point x="0" y="329" type="line"/>
      <point x="342" y="-12" type="line"/>
    </contour>
  </outline>
</glyph>
<glyph name="Darbai-beria" format="2">
  <advance width="795"/>
  <unicode hex="16EA2"/>
  <note>
D
</note>
  <outline>
    <contour>
      <point x="239" y="-136" type="curve" smooth="yes"/>
      <point x="529" y="-136" type="line" smooth="yes"/>
      <point x="601" y="-136"/>
      <point x="657" y="-80"/>
      <point x="657" y="-5" type="curve" smooth="yes"/>
      <point x="657" y="668" type="line"/>
      <point x="192" y="668" type="line"/>
      <point x="192" y="473" type="line"/>
      <point x="260" y="473" type="line"/>
      <point x="260" y="605" type="line"/>
      <point x="589" y="605" type="line"/>
      <point x="589" y="31" type="line" smooth="yes"/>
      <point x="589" y="-50"/>
      <point x="566" y="-73"/>
      <point x="503" y="-73" type="curve" smooth="yes"/>
      <point x="265" y="-73" type="line" smooth="yes"/>
      <point x="202" y="-73"/>
      <point x="179" y="-50"/>
      <point x="179" y="31" type="curve" smooth="yes"/>
      <point x="179" y="65" type="line"/>
      <point x="111" y="65" type="line"/>
      <point x="111" y="-5" type="line" smooth="yes"/>
      <point x="111" y="-80"/>
      <point x="167" y="-136"/>
    </contour>
  </outline>
</glyph>
<glyph name="Goway-beria" format="2">
  <advance width="845"/>
  <unicode hex="16EA5"/>
  <outline>
    <contour>
      <point x="387" y="118" type="line"/>
      <point x="387" y="-136" type="line"/>
      <point x="455" y="-136" type="line"/>
      <point x="455" y="118" type="line"/>
    </contour>
    <contour>
      <point x="743" y="-51" type="curve"/>
      <point x="765" y="11" type="line"/>
      <point x="575" y="78"/>
      <point x="162" y="232"/>
      <point x="162" y="442" type="curve" smooth="yes"/>
      <point x="162" y="541"/>
      <point x="255" y="622"/>
      <point x="420" y="622" type="curve" smooth="yes"/>
      <point x="585" y="622"/>
      <point x="678" y="541"/>
      <point x="678" y="442" type="curve" smooth="yes"/>
      <point x="678" y="233"/>
      <point x="267" y="78"/>
      <point x="78" y="11" type="curve"/>
      <point x="100" y="-51" type="line"/>
      <point x="321" y="28"/>
      <point x="748" y="199"/>
      <point x="748" y="442" type="curve" smooth="yes"/>
      <point x="748" y="576"/>
      <point x="628" y="685"/>
      <point x="420" y="685" type="curve" smooth="yes"/>
      <point x="212" y="685"/>
      <point x="92" y="576"/>
      <point x="92" y="442" type="curve" smooth="yes"/>
      <point x="92" y="192"/>
      <point x="516" y="29"/>
    </contour>
  </outline>
</glyph>
<glyph name="Hirdeabo-beria" format="2">
  <advance width="850"/>
  <unicode hex="16EA6"/>
  <outline>
    <contour>
      <point x="138" y="668" type="line"/>
      <point x="138" y="-136" type="line"/>
      <point x="206" y="-136" type="line"/>
      <point x="206" y="650" type="line"/>
      <point x="161" y="605" type="line"/>
      <point x="689" y="605" type="line"/>
      <point x="644" y="650" type="line"/>
      <point x="644" y="-136" type="line"/>
      <point x="712" y="-136" type="line"/>
      <point x="712" y="668" type="line"/>
    </contour>
  </outline>
</glyph>
<glyph name="I-beria" format="2">
  <advance width="887"/>
  <unicode hex="16EA7"/>
  <anchor x="453" y="720" name="U"/>
  <outline>
    <contour>
      <point x="495" y="-136" type="line"/>
      <point x="814" y="-136" type="line"/>
      <point x="814" y="-73" type="line"/>
      <point x="645" y="-73" type="line"/>
      <point x="690" y="-118" type="line"/>
      <point x="690" y="668" type="line"/>
      <point x="622" y="668" type="line"/>
      <point x="611" y="566"/>
      <point x="497" y="155"/>
      <point x="281" y="155" type="curve" smooth="yes"/>
      <point x="200" y="155"/>
      <point x="136" y="199"/>
      <point x="136" y="379" type="curve" smooth="yes"/>
      <point x="136" y="545"/>
      <point x="198" y="588"/>
      <point x="304" y="627" type="curve"/>
      <point x="278" y="685" type="line"/>
      <point x="150" y="637"/>
      <point x="68" y="588"/>
      <point x="68" y="379" type="curve" smooth="yes"/>
      <point x="68" y="148"/>
      <point x="163" y="92"/>
      <point x="281" y="92" type="curve" smooth="yes"/>
      <point x="466" y="92"/>
      <point x="571" y="297"/>
      <point x="621" y="426" type="curve"/>
      <point x="667" y="426" type="line"/>
      <point x="622" y="471" type="line"/>
      <point x="622" y="-118" type="line"/>
      <point x="667" y="-73" type="line"/>
      <point x="495" y="-73" type="line"/>
    </contour>
    <contour>
      <point x="557" y="77" type="line"/>
      <point x="755" y="77" type="line"/>
      <point x="755" y="140" type="line"/>
      <point x="557" y="140" type="line"/>
    </contour>
  </outline>
</glyph>
<glyph name="Djai-beria" format="2">
  <advance width="887"/>
  <unicode hex="16EA8"/>
  <outline>
    <contour>
      <point x="336" y="270"/>
      <point x="164" y="1"/>
      <point x="46" y="-111" type="curve"/>
      <point x="92" y="-157" type="line"/>
      <point x="238" y="-16"/>
      <point x="403" y="272"/>
      <point x="403" y="493" type="curve" smooth="yes"/>
      <point x="403" y="634"/>
      <point x="345" y="685"/>
      <point x="259" y="685" type="curve" smooth="yes"/>
      <point x="186" y="685"/>
      <point x="117" y="646"/>
      <point x="117" y="535" type="curve" smooth="yes"/>
      <point x="117" y="275"/>
      <point x="454" y="-43"/>
      <point x="631" y="-136" type="curve"/>
      <point x="694" y="-136" type="line"/>
      <point x="694" y="604" type="line"/>
      <point x="825" y="604" type="line"/>
      <point x="825" y="668" type="line"/>
      <point x="626" y="668" type="line"/>
      <point x="626" y="-56" type="line"/>
      <point x="421" y="89"/>
      <point x="184" y="328"/>
      <point x="184" y="535" type="curve" smooth="yes"/>
      <point x="184" y="598"/>
      <point x="218" y="623"/>
      <point x="259" y="623" type="curve" smooth="yes"/>
      <point x="308" y="623"/>
      <point x="336" y="585"/>
      <point x="336" y="491" type="curve" smooth="yes"/>
    </contour>
  </outline>
</glyph>
<glyph name="Kobo-beria" format="2">
  <advance width="788"/>
  <unicode hex="16EA9"/>
  <outline>
    <contour>
      <point x="418" y="-156" type="curve" smooth="yes"/>
      <point x="582" y="-156"/>
      <point x="710" y="-72"/>
      <point x="710" y="86" type="curve" smooth="yes"/>
      <point x="710" y="237"/>
      <point x="576" y="320"/>
      <point x="417" y="320" type="curve" smooth="yes"/>
      <point x="386" y="320" type="line"/>
      <point x="433" y="276" type="line"/>
      <point x="433" y="605" type="line"/>
      <point x="564" y="605" type="line"/>
      <point x="564" y="668" type="line"/>
      <point x="235" y="668" type="line"/>
      <point x="235" y="605" type="line"/>
      <point x="365" y="605" type="line"/>
      <point x="365" y="259" type="line"/>
      <point x="403" y="259" type="line" smooth="yes"/>
      <point x="532" y="259"/>
      <point x="640" y="200"/>
      <point x="640" y="85" type="curve" smooth="yes"/>
      <point x="640" y="-33"/>
      <point x="543" y="-93"/>
      <point x="417" y="-93" type="curve" smooth="yes"/>
      <point x="273" y="-93"/>
      <point x="161" y="-19"/>
      <point x="141" y="102" type="curve"/>
      <point x="74" y="88" type="line"/>
      <point x="101" y="-63"/>
      <point x="237" y="-156"/>
    </contour>
  </outline>
</glyph>
<glyph name="Lakko-beria" format="2">
  <advance width="550"/>
  <unicode hex="16EAA"/>
  <outline>
    <contour>
      <point x="80" y="-136" type="line"/>
      <point x="470" y="-136" type="line"/>
      <point x="470" y="-73" type="line"/>
      <point x="264" y="-73" type="line"/>
      <point x="309" y="-118" type="line"/>
      <point x="309" y="650" type="line"/>
      <point x="264" y="605" type="line"/>
      <point x="398" y="605" type="line"/>
      <point x="398" y="668" type="line"/>
      <point x="153" y="668" type="line"/>
      <point x="153" y="605" type="line"/>
      <point x="286" y="605" type="line"/>
      <point x="241" y="650" type="line"/>
      <point x="241" y="-118" type="line"/>
      <point x="286" y="-73" type="line"/>
      <point x="80" y="-73" type="line"/>
    </contour>
  </outline>
</glyph>
<glyph name="Nini-beria" format="2">
  <advance width="785"/>
  <unicode hex="16EAC"/>
  <outline>
    <contour>
      <point x="392" y="-151" type="curve" smooth="yes"/>
      <point x="567" y="-151"/>
      <point x="710" y="-61"/>
      <point x="710" y="88" type="curve" smooth="yes"/>
      <point x="710" y="226"/>
      <point x="580" y="327"/>
      <point x="391" y="327" type="curve" smooth="yes"/>
      <point x="206" y="327"/>
      <point x="75" y="226"/>
      <point x="75" y="88" type="curve" smooth="yes"/>
      <point x="75" y="-61"/>
      <point x="217" y="-151"/>
    </contour>
    <contour>
      <point x="391" y="-88" type="curve" smooth="yes"/>
      <point x="238" y="-88"/>
      <point x="145" y="-14"/>
      <point x="145" y="88" type="curve" smooth="yes"/>
      <point x="145" y="189"/>
      <point x="238" y="264"/>
      <point x="391" y="264" type="curve" smooth="yes"/>
      <point x="544" y="264"/>
      <point x="640" y="191"/>
      <point x="640" y="88" type="curve" smooth="yes"/>
      <point x="640" y="-14"/>
      <point x="544" y="-88"/>
    </contour>
    <contour>
      <point x="358" y="-118" type="line"/>
      <point x="426" y="-118" type="line"/>
      <point x="426" y="605" type="line"/>
      <point x="564" y="605" type="line"/>
      <point x="564" y="668" type="line"/>
      <point x="220" y="668" type="line"/>
      <point x="220" y="605" type="line"/>
      <point x="358" y="605" type="line"/>
    </contour>
  </outline>
</glyph>
<glyph name="Gna-beria" format="2">
  <advance width="757"/>
  <unicode hex="16EAD"/>
  <outline>
    <contour>
      <point x="435" y="405" type="curve"/>
      <point x="463" y="424"/>
      <point x="499" y="468"/>
      <point x="499" y="521" type="curve" smooth="yes"/>
      <point x="499" y="623"/>
      <point x="410" y="668"/>
      <point x="309" y="668" type="curve" smooth="yes"/>
      <point x="135" y="668" type="line"/>
      <point x="135" y="0" type="line"/>
      <point x="203" y="0" type="line"/>
      <point x="203" y="348" type="line"/>
      <point x="350" y="348" type="line" smooth="yes"/>
      <point x="488" y="348"/>
      <point x="597" y="296"/>
      <point x="597" y="176" type="curve" smooth="yes"/>
      <point x="597" y="43"/>
      <point x="449" y="-73"/>
      <point x="311" y="-73" type="curve" smooth="yes"/>
      <point x="278" y="-73" type="line"/>
      <point x="278" y="-136" type="line"/>
      <point x="661" y="-136" type="line"/>
      <point x="661" y="-73" type="line"/>
      <point x="504" y="-73" type="line"/>
      <point x="596" y="-21"/>
      <point x="665" y="63"/>
      <point x="665" y="177" type="curve" smooth="yes"/>
      <point x="665" y="306"/>
      <point x="565" y="387"/>
    </contour>
    <contour>
      <point x="310" y="411" type="curve" smooth="yes"/>
      <point x="203" y="411" type="line"/>
      <point x="203" y="605" type="line"/>
      <point x="305" y="605" type="line" smooth="yes"/>
      <point x="377" y="605"/>
      <point x="431" y="578"/>
      <point x="431" y="521" type="curve" smooth="yes"/>
      <point x="431" y="462"/>
      <point x="374" y="411"/>
    </contour>
  </outline>
</glyph>
<glyph name="Oi-beria" format="2">
  <advance width="839"/>
  <unicode hex="16EAF"/>
  <anchor x="453" y="720" name="U"/>
  <outline>
    <contour>
      <point x="26" y="-72" type="line"/>
      <point x="26" y="-136" type="line"/>
      <point x="208" y="-136" type="line"/>
      <point x="470" y="500" type="line"/>
      <point x="436" y="500" type="line"/>
      <point x="690" y="-115" type="line"/>
      <point x="718" y="-73" type="line"/>
      <point x="542" y="-73" type="line"/>
      <point x="542" y="-136" type="line"/>
      <point x="746" y="-136" type="line"/>
      <point x="746" y="-78" type="line"/>
      <point x="487" y="545" type="line"/>
      <point x="487" y="549" type="line"/>
      <point x="703" y="549" type="line"/>
      <point x="703" y="613" type="line"/>
      <point x="487" y="613" type="line"/>
      <point x="487" y="684" type="line"/>
      <point x="419" y="684" type="line"/>
      <point x="419" y="613" type="line"/>
      <point x="209" y="613" type="line"/>
      <point x="209" y="549" type="line"/>
      <point x="419" y="549" type="line"/>
      <point x="419" y="543" type="line"/>
      <point x="147" y="-114" type="line"/>
      <point x="209" y="-72" type="line"/>
    </contour>
  </outline>
</glyph>
<glyph name="Pi-beria" format="2">
  <advance width="844"/>
  <unicode hex="16EB0"/>
  <note>
P
</note>
  <outline>
    <contour>
      <point x="452" y="-114" type="line"/>
      <point x="796" y="646" type="line"/>
      <point x="736" y="674" type="line"/>
      <point x="410" y="-47" type="line"/>
      <point x="453" y="-47" type="line"/>
      <point x="110" y="674" type="line"/>
      <point x="48" y="646" type="line"/>
      <point x="410" y="-114" type="line"/>
      <point x="348" y="-73" type="line"/>
      <point x="520" y="-73" type="line"/>
    </contour>
    <contour>
      <point x="459" y="370" type="line"/>
      <point x="459" y="674" type="line"/>
      <point x="391" y="674" type="line"/>
      <point x="391" y="370" type="line"/>
    </contour>
    <contour>
      <point x="238" y="367" type="curve"/>
      <point x="264" y="312" type="line"/>
      <point x="330" y="339"/>
      <point x="374" y="352"/>
      <point x="426" y="352" type="curve" smooth="yes"/>
      <point x="478" y="352"/>
      <point x="532" y="344"/>
      <point x="594" y="317" type="curve"/>
      <point x="618" y="373" type="line"/>
      <point x="564" y="396"/>
      <point x="507" y="413"/>
      <point x="426" y="413" type="curve" smooth="yes"/>
      <point x="361" y="413"/>
      <point x="301" y="392"/>
    </contour>
    <contour>
      <point x="601" y="-73" type="line"/>
      <point x="264" y="-73" type="line"/>
      <point x="264" y="-136" type="line"/>
      <point x="601" y="-136" type="line"/>
    </contour>
  </outline>
</glyph>
<glyph name="Erigo-beria" format="2">
  <advance width="868"/>
  <unicode hex="16EB1"/>
  <outline>
    <contour>
      <point x="259" y="-136" type="line"/>
      <point x="609" y="-136" type="line"/>
      <point x="609" y="-73" type="line"/>
      <point x="468" y="-73" type="line"/>
      <point x="468" y="264" type="line"/>
      <point x="750" y="264" type="line"/>
      <point x="750" y="630" type="line"/>
      <point x="682" y="630" type="line"/>
      <point x="682" y="327" type="line"/>
      <point x="423" y="327" type="line"/>
      <point x="468" y="282" type="line"/>
      <point x="468" y="675" type="line"/>
      <point x="400" y="675" type="line"/>
      <point x="400" y="282" type="line"/>
      <point x="445" y="327" type="line"/>
      <point x="186" y="327" type="line"/>
      <point x="186" y="630" type="line"/>
      <point x="118" y="630" type="line"/>
      <point x="118" y="264" type="line"/>
      <point x="400" y="264" type="line"/>
      <point x="400" y="-73" type="line"/>
      <point x="259" y="-73" type="line"/>
    </contour>
  </outline>
</glyph>
<glyph name="Erigo-Tamura-beria" format="2">
  <advance width="868"/>
  <unicode hex="16EB2"/>
  <outline>
    <contour>
      <point x="12" y="-136" type="line"/>
      <point x="340" y="-136" type="line" smooth="yes"/>
      <point x="417" y="-136"/>
      <point x="468" y="-85"/>
      <point x="468" y="-5" type="curve" smooth="yes"/>
      <point x="468" y="264" type="line"/>
      <point x="750" y="264" type="line"/>
      <point x="750" y="630" type="line"/>
      <point x="682" y="630" type="line"/>
      <point x="682" y="327" type="line"/>
      <point x="423" y="327" type="line"/>
      <point x="468" y="282" type="line"/>
      <point x="468" y="675" type="line"/>
      <point x="400" y="675" type="line"/>
      <point x="400" y="282" type="line"/>
      <point x="445" y="327" type="line"/>
      <point x="186" y="327" type="line"/>
      <point x="186" y="630" type="line"/>
      <point x="118" y="630" type="line"/>
      <point x="118" y="264" type="line"/>
      <point x="400" y="264" type="line"/>
      <point x="400" y="16" type="line" smooth="yes"/>
      <point x="400" y="-50"/>
      <point x="377" y="-73"/>
      <point x="314" y="-73" type="curve" smooth="yes"/>
      <point x="12" y="-73" type="line"/>
    </contour>
  </outline>
</glyph>
<glyph name="Shep-beria" format="2">
  <advance width="684"/>
  <unicode hex="16EB4"/>
  <outline>
    <contour>
      <point x="95" y="-136" type="line"/>
      <point x="290" y="-136" type="line" smooth="yes"/>
      <point x="367" y="-136"/>
      <point x="418" y="-85"/>
      <point x="418" y="-5" type="curve" smooth="yes"/>
      <point x="418" y="605" type="line"/>
      <point x="585" y="605" type="line"/>
      <point x="585" y="668" type="line"/>
      <point x="183" y="668" type="line"/>
      <point x="183" y="605" type="line"/>
      <point x="350" y="605" type="line"/>
      <point x="350" y="16" type="line" smooth="yes"/>
      <point x="350" y="-50"/>
      <point x="327" y="-73"/>
      <point x="264" y="-73" type="curve" smooth="yes"/>
      <point x="95" y="-73" type="line"/>
    </contour>
    <contour>
      <point x="205" y="187" type="line"/>
      <point x="563" y="187" type="line"/>
      <point x="563" y="250" type="line"/>
      <point x="205" y="250" type="line"/>
    </contour>
    <contour>
      <point x="205" y="378" type="line"/>
      <point x="563" y="378" type="line"/>
      <point x="563" y="441" type="line"/>
      <point x="205" y="441" type="line"/>
    </contour>
  </outline>
</glyph>
<glyph name="Wasse-beria" format="2">
  <advance width="884"/>
  <unicode hex="16EB7"/>
  <note>
W
</note>
  <outline>
    <contour>
      <point x="406" y="-73" type="line"/>
      <point x="114" y="673" type="line"/>
      <point x="52" y="646" type="line"/>
      <point x="333" y="-73" type="line"/>
      <point x="219" y="-73" type="line"/>
      <point x="219" y="-136" type="line"/>
      <point x="663" y="-136" type="line"/>
      <point x="663" y="-73" type="line"/>
      <point x="549" y="-73" type="line"/>
      <point x="831" y="646" type="line"/>
      <point x="771" y="673" type="line"/>
      <point x="478" y="-73" type="line"/>
      <point x="475" y="-73" type="line"/>
      <point x="475" y="674" type="line"/>
      <point x="409" y="674" type="line"/>
      <point x="409" y="-73" type="line"/>
    </contour>
  </outline>
</glyph>
<glyph name="Ay-beria" format="2">
  <advance width="717"/>
  <unicode hex="16EB8"/>
  <outline>
    <contour>
      <point x="358" y="-88" type="curve" smooth="yes"/>
      <point x="251" y="-88"/>
      <point x="179" y="-34"/>
      <point x="179" y="47" type="curve" smooth="yes"/>
      <point x="179" y="140"/>
      <point x="269" y="232"/>
      <point x="379" y="263" type="curve"/>
      <point x="398" y="287" type="line"/>
      <point x="510" y="338"/>
      <point x="586" y="408"/>
      <point x="586" y="504" type="curve" smooth="yes"/>
      <point x="586" y="615"/>
      <point x="499" y="685"/>
      <point x="358" y="685" type="curve" smooth="yes"/>
      <point x="217" y="685"/>
      <point x="130" y="615"/>
      <point x="130" y="504" type="curve" smooth="yes"/>
      <point x="130" y="394"/>
      <point x="228" y="326"/>
      <point x="322" y="288" type="curve"/>
      <point x="338" y="263" type="line"/>
      <point x="453" y="228"/>
      <point x="538" y="135"/>
      <point x="538" y="46" type="curve" smooth="yes"/>
      <point x="538" y="-35"/>
      <point x="465" y="-88"/>
    </contour>
    <contour>
      <point x="358" y="-151" type="curve" smooth="yes"/>
      <point x="507" y="-151"/>
      <point x="606" y="-72"/>
      <point x="606" y="46" type="curve" smooth="yes"/>
      <point x="606" y="162"/>
      <point x="504" y="250"/>
      <point x="407" y="290" type="curve"/>
      <point x="370" y="317" type="line"/>
      <point x="308" y="332"/>
      <point x="198" y="414"/>
      <point x="198" y="505" type="curve" smooth="yes"/>
      <point x="198" y="576"/>
      <point x="261" y="622"/>
      <point x="358" y="622" type="curve" smooth="yes"/>
      <point x="455" y="622"/>
      <point x="518" y="576"/>
      <point x="518" y="505" type="curve" smooth="yes"/>
      <point x="518" y="417"/>
      <point x="416" y="336"/>
      <point x="346" y="317" type="curve"/>
      <point x="312" y="295" type="line"/>
      <point x="190" y="235"/>
      <point x="111" y="150"/>
      <point x="111" y="46" type="curve" smooth="yes"/>
      <point x="111" y="-72"/>
      <point x="210" y="-151"/>
    </contour>
    <contour>
      <point x="112" y="257" type="line"/>
      <point x="604" y="257" type="line"/>
      <point x="604" y="320" type="line"/>
      <point x="112" y="320" type="line"/>
    </contour>
  </outline>
</glyph>
<glyph name="arkab-beria" format="2">
  <advance width="676"/>
  <unicode hex="16EBB"/>
  <anchor x="338" y="720" name="U"/>
  <outline>
    <contour>
      <point x="552" y="-16" type="line"/>
      <point x="602" y="24" type="line"/>
      <point x="130" y="646" type="line"/>
      <point x="112" y="608" type="line"/>
      <point x="566" y="608" type="line"/>
      <point x="548" y="646" type="line"/>
      <point x="77" y="24" type="line"/>
      <point x="124" y="-15" type="line"/>
      <point x="600" y="614" type="line"/>
      <point x="600" y="668" type="line"/>
      <point x="74" y="668" type="line"/>
      <point x="74" y="614" type="line"/>
    </contour>
  </outline>
</glyph>
<glyph name="basigna-beria" format="2">
  <advance width="634"/>
  <unicode hex="16EBC"/>
  <outline>
    <contour>
      <point x="448" y="361" type="line"/>
      <point x="448" y="0" type="line"/>
      <point x="512" y="0" type="line"/>
      <point x="512" y="668" type="line"/>
      <point x="235" y="668" type="line"/>
      <point x="235" y="608" type="line"/>
      <point x="493" y="608" type="line"/>
      <point x="448" y="653" type="line"/>
      <point x="448" y="331" type="line"/>
      <point x="493" y="376" type="line"/>
      <point x="225" y="376" type="line" smooth="yes"/>
      <point x="155" y="376"/>
      <point x="102" y="323"/>
      <point x="102" y="254" type="curve" smooth="yes"/>
      <point x="102" y="0" type="line"/>
      <point x="166" y="0" type="line"/>
      <point x="166" y="250" type="line" smooth="yes"/>
      <point x="166" y="289"/>
      <point x="192" y="316"/>
      <point x="229" y="316" type="curve" smooth="yes"/>
      <point x="493" y="316" type="line"/>
    </contour>
  </outline>
</glyph>
<glyph name="darbai-beria" format="2">
  <advance width="657"/>
  <unicode hex="16EBD"/>
  <outline>
    <contour>
      <point x="92" y="60" type="line"/>
      <point x="92" y="0" type="line"/>
      <point x="417" y="0" type="line" smooth="yes"/>
      <point x="490" y="0"/>
      <point x="540" y="51"/>
      <point x="540" y="122" type="curve" smooth="yes"/>
      <point x="540" y="668" type="line"/>
      <point x="114" y="668" type="line"/>
      <point x="114" y="478" type="line"/>
      <point x="178" y="478" type="line"/>
      <point x="178" y="654" type="line"/>
      <point x="133" y="608" type="line"/>
      <point x="521" y="608" type="line"/>
      <point x="476" y="654" type="line"/>
      <point x="476" y="126" type="line" smooth="yes"/>
      <point x="476" y="85"/>
      <point x="451" y="60"/>
      <point x="413" y="60" type="curve" smooth="yes"/>
    </contour>
  </outline>
</glyph>
<glyph name="eh-beria" format="2">
  <advance width="670"/>
  <unicode hex="16EBE"/>
  <anchor x="335" y="720" name="U"/>
  <outline>
    <contour>
      <point x="498" y="226" type="line"/>
      <point x="498" y="286" type="line"/>
      <point x="353" y="286" type="line" smooth="yes"/>
      <point x="210" y="286"/>
      <point x="118" y="347"/>
      <point x="118" y="456" type="curve" smooth="yes"/>
      <point x="118" y="565"/>
      <point x="214" y="625"/>
      <point x="340" y="625" type="curve" smooth="yes"/>
      <point x="442" y="625"/>
      <point x="522" y="587"/>
      <point x="568" y="517" type="curve"/>
      <point x="620" y="555" type="line"/>
      <point x="560" y="644"/>
      <point x="458" y="685"/>
      <point x="340" y="685" type="curve" smooth="yes"/>
      <point x="173" y="685"/>
      <point x="54" y="596"/>
      <point x="54" y="453" type="curve" smooth="yes"/>
      <point x="54" y="320"/>
      <point x="160" y="226"/>
      <point x="356" y="226" type="curve" smooth="yes"/>
    </contour>
    <contour>
      <point x="209" y="0" type="line"/>
      <point x="528" y="0" type="line"/>
      <point x="528" y="60" type="line"/>
      <point x="237" y="60" type="line"/>
      <point x="259" y="22" type="line"/>
      <point x="396" y="244" type="line"/>
      <point x="325" y="244" type="line"/>
      <point x="209" y="57" type="line"/>
    </contour>
  </outline>
</glyph>
<glyph name="fitko-beria" format="2">
  <advance width="628"/>
  <unicode hex="16EBF"/>
  <outline>
    <contour>
      <point x="93" y="60" type="line"/>
      <point x="93" y="0" type="line"/>
      <point x="265" y="0" type="line" smooth="yes"/>
      <point x="442" y="0"/>
      <point x="528" y="51"/>
      <point x="528" y="334" type="curve" smooth="yes"/>
      <point x="528" y="616"/>
      <point x="442" y="668"/>
      <point x="265" y="668" type="curve" smooth="yes"/>
      <point x="93" y="668" type="line"/>
      <point x="93" y="608" type="line"/>
      <point x="279" y="608" type="line" smooth="yes"/>
      <point x="410" y="608"/>
      <point x="462" y="561"/>
      <point x="462" y="334" type="curve" smooth="yes"/>
      <point x="462" y="104"/>
      <point x="408" y="60"/>
      <point x="279" y="60" type="curve" smooth="yes"/>
    </contour>
  </outline>
</glyph>
<glyph name="goway-beria" format="2">
  <advance width="755"/>
  <unicode hex="16EC0"/>
  <outline>
    <contour>
      <point x="345" y="0" type="line"/>
      <point x="408" y="0" type="line"/>
      <point x="408" y="198" type="line"/>
      <point x="345" y="198" type="line"/>
    </contour>
    <contour>
      <point x="281" y="120"/>
      <point x="660" y="271"/>
      <point x="660" y="481" type="curve" smooth="yes"/>
      <point x="660" y="594"/>
      <point x="557" y="684"/>
      <point x="376" y="684" type="curve" smooth="yes"/>
      <point x="196" y="684"/>
      <point x="93" y="594"/>
      <point x="93" y="481" type="curve" smooth="yes"/>
      <point x="93" y="264"/>
      <point x="470" y="123"/>
      <point x="656" y="57" type="curve"/>
      <point x="678" y="114" type="line"/>
      <point x="533" y="167"/>
      <point x="157" y="299"/>
      <point x="157" y="481" type="curve" smooth="yes"/>
      <point x="157" y="560"/>
      <point x="237" y="624"/>
      <point x="376" y="624" type="curve" smooth="yes"/>
      <point x="516" y="624"/>
      <point x="596" y="560"/>
      <point x="596" y="481" type="curve" smooth="yes"/>
      <point x="596" y="304"/>
      <point x="234" y="169"/>
      <point x="76" y="114" type="curve"/>
      <point x="99" y="57" type="line"/>
    </contour>
  </outline>
</glyph>
<glyph name="i-beria" format="2">
  <advance width="738"/>
  <unicode hex="16EC2"/>
  <anchor x="380" y="720" name="U"/>
  <outline>
    <contour>
      <point x="33" y="53" type="curve"/>
      <point x="55" y="-7" type="line"/>
      <point x="224" y="40"/>
      <point x="342" y="143"/>
      <point x="394" y="270" type="curve"/>
      <point x="375" y="270" type="line"/>
      <point x="388" y="220"/>
      <point x="420" y="172"/>
      <point x="501" y="172" type="curve" smooth="yes"/>
      <point x="684" y="172" type="line"/>
      <point x="684" y="232" type="line"/>
      <point x="514" y="232" type="line" smooth="yes"/>
      <point x="461" y="232"/>
      <point x="425" y="268"/>
      <point x="425" y="346" type="curve" smooth="yes"/>
      <point x="425" y="668" type="line"/>
      <point x="361" y="668" type="line"/>
      <point x="361" y="437" type="line" smooth="yes"/>
      <point x="361" y="252"/>
      <point x="247" y="115"/>
    </contour>
    <contour>
      <point x="418" y="82" type="line"/>
      <point x="418" y="0" type="line"/>
      <point x="499" y="0" type="line"/>
      <point x="499" y="82" type="line"/>
    </contour>
  </outline>
</glyph>
<glyph name="djai-beria" format="2">
  <advance width="778"/>
  <unicode hex="16EC3"/>
  <outline>
    <contour>
      <point x="689" y="-16" type="curve"/>
      <point x="739" y="22" type="line"/>
      <point x="652" y="132"/>
      <point x="487" y="377"/>
      <point x="487" y="541" type="curve" smooth="yes"/>
      <point x="487" y="602"/>
      <point x="508" y="624"/>
      <point x="551" y="624" type="curve" smooth="yes"/>
      <point x="596" y="624"/>
      <point x="619" y="601"/>
      <point x="619" y="541" type="curve" smooth="yes"/>
      <point x="619" y="375"/>
      <point x="471" y="155"/>
      <point x="371" y="53" type="curve"/>
      <point x="404" y="54" type="line"/>
      <point x="309" y="151"/>
      <point x="157" y="372"/>
      <point x="157" y="541" type="curve" smooth="yes"/>
      <point x="157" y="601"/>
      <point x="180" y="624"/>
      <point x="225" y="624" type="curve" smooth="yes"/>
      <point x="268" y="624"/>
      <point x="289" y="602"/>
      <point x="289" y="541" type="curve" smooth="yes"/>
      <point x="289" y="381"/>
      <point x="124" y="132"/>
      <point x="38" y="23" type="curve"/>
      <point x="87" y="-16" type="line"/>
      <point x="176" y="96"/>
      <point x="352" y="361"/>
      <point x="352" y="541" type="curve" smooth="yes"/>
      <point x="352" y="642"/>
      <point x="306" y="684"/>
      <point x="225" y="684" type="curve" smooth="yes"/>
      <point x="144" y="684"/>
      <point x="93" y="641"/>
      <point x="93" y="541" type="curve" smooth="yes"/>
      <point x="93" y="326"/>
      <point x="309" y="42"/>
      <point x="401" y="-24" type="curve"/>
      <point x="378" y="-21" type="line"/>
      <point x="443" y="21"/>
      <point x="683" y="316"/>
      <point x="683" y="541" type="curve" smooth="yes"/>
      <point x="683" y="642"/>
      <point x="631" y="684"/>
      <point x="551" y="684" type="curve" smooth="yes"/>
      <point x="471" y="684"/>
      <point x="424" y="643"/>
      <point x="424" y="541" type="curve" smooth="yes"/>
      <point x="424" y="367"/>
      <point x="594" y="100"/>
    </contour>
  </outline>
</glyph>
<glyph name="meri-beria" format="2">
  <advance width="735"/>
  <unicode hex="16EC6"/>
  <outline>
    <contour>
      <point x="35" y="-3" type="curve"/>
      <point x="97" y="-19" type="line"/>
      <point x="120" y="76"/>
      <point x="173" y="262"/>
      <point x="324" y="417" type="curve" smooth="yes"/>
      <point x="418" y="511"/>
      <point x="525" y="577"/>
      <point x="655" y="618" type="curve"/>
      <point x="633" y="678" type="line"/>
      <point x="503" y="638"/>
      <point x="379" y="565"/>
      <point x="276" y="459" type="curve" smooth="yes"/>
      <point x="112" y="291"/>
      <point x="57" y="85"/>
    </contour>
    <contour>
      <point x="587" y="250" type="line"/>
      <point x="640" y="286" type="line"/>
      <point x="474" y="552" type="line"/>
      <point x="421" y="516" type="line"/>
    </contour>
  </outline>
</glyph>
<glyph name="nini-beria" format="2">
  <advance width="703"/>
  <unicode hex="16EC7"/>
  <outline>
    <contour>
      <point x="319" y="24" type="line"/>
      <point x="383" y="24" type="line"/>
      <point x="383" y="608" type="line"/>
      <point x="525" y="608" type="line"/>
      <point x="525" y="668" type="line"/>
      <point x="176" y="668" type="line"/>
      <point x="176" y="608" type="line"/>
      <point x="319" y="608" type="line"/>
    </contour>
    <contour>
      <point x="351" y="-15" type="curve" smooth="yes"/>
      <point x="511" y="-15"/>
      <point x="625" y="68"/>
      <point x="625" y="189" type="curve" smooth="yes"/>
      <point x="625" y="301"/>
      <point x="523" y="393"/>
      <point x="350" y="393" type="curve" smooth="yes"/>
      <point x="182" y="393"/>
      <point x="78" y="300"/>
      <point x="78" y="189" type="curve" smooth="yes"/>
      <point x="78" y="68"/>
      <point x="192" y="-15"/>
    </contour>
    <contour>
      <point x="352" y="43" type="curve" smooth="yes"/>
      <point x="215" y="43"/>
      <point x="144" y="108"/>
      <point x="144" y="189" type="curve" smooth="yes"/>
      <point x="144" y="268"/>
      <point x="216" y="335"/>
      <point x="350" y="335" type="curve" smooth="yes"/>
      <point x="485" y="335"/>
      <point x="559" y="268"/>
      <point x="559" y="189" type="curve" smooth="yes"/>
      <point x="559" y="108"/>
      <point x="485" y="43"/>
    </contour>
  </outline>
</glyph>
<glyph name="gna-beria" format="2">
  <advance width="700"/>
  <unicode hex="16EC8"/>
  <outline>
    <contour>
      <point x="121" y="0" type="line"/>
      <point x="185" y="0" type="line"/>
      <point x="185" y="418" type="line"/>
      <point x="140" y="372" type="line"/>
      <point x="308" y="372" type="line" smooth="yes"/>
      <point x="448" y="372"/>
      <point x="560" y="332"/>
      <point x="560" y="208" type="curve" smooth="yes"/>
      <point x="560" y="97" type="line" smooth="yes"/>
      <point x="560" y="66"/>
      <point x="548" y="55"/>
      <point x="519" y="55" type="curve" smooth="yes"/>
      <point x="437" y="55" type="line" smooth="yes"/>
      <point x="408" y="55"/>
      <point x="397" y="66"/>
      <point x="397" y="97" type="curve" smooth="yes"/>
      <point x="397" y="190" type="line"/>
      <point x="333" y="190" type="line"/>
      <point x="333" y="88" type="line" smooth="yes"/>
      <point x="333" y="35"/>
      <point x="375" y="-5"/>
      <point x="426" y="-5" type="curve" smooth="yes"/>
      <point x="530" y="-5" type="line" smooth="yes"/>
      <point x="593" y="-5"/>
      <point x="624" y="37"/>
      <point x="624" y="100" type="curve" smooth="yes"/>
      <point x="624" y="210" type="line" smooth="yes"/>
      <point x="624" y="346"/>
      <point x="519" y="413"/>
      <point x="379" y="428" type="curve"/>
      <point x="384" y="409" type="line"/>
      <point x="431" y="431"/>
      <point x="470" y="471"/>
      <point x="470" y="535" type="curve" smooth="yes"/>
      <point x="470" y="628"/>
      <point x="387" y="668"/>
      <point x="287" y="668" type="curve" smooth="yes"/>
      <point x="121" y="668" type="line"/>
    </contour>
    <contour>
      <point x="284" y="432" type="curve" smooth="yes"/>
      <point x="140" y="432" type="line"/>
      <point x="185" y="386" type="line"/>
      <point x="185" y="653" type="line"/>
      <point x="140" y="608" type="line"/>
      <point x="281" y="608" type="line" smooth="yes"/>
      <point x="369" y="608"/>
      <point x="404" y="584"/>
      <point x="404" y="531" type="curve" smooth="yes"/>
      <point x="404" y="478"/>
      <point x="349" y="432"/>
    </contour>
  </outline>
</glyph>
<glyph name="ngay-beria" format="2">
  <advance width="649"/>
  <unicode hex="16EC9"/>
  <outline>
    <contour>
      <point x="399" y="-5" type="curve" smooth="yes"/>
      <point x="462" y="-5" type="line" smooth="yes"/>
      <point x="529" y="-5"/>
      <point x="557" y="34"/>
      <point x="557" y="100" type="curve" smooth="yes"/>
      <point x="557" y="259" type="line" smooth="yes"/>
      <point x="557" y="334"/>
      <point x="508" y="381"/>
      <point x="434" y="381" type="curve" smooth="yes"/>
      <point x="186" y="381" type="line"/>
      <point x="186" y="608" type="line"/>
      <point x="399" y="608" type="line"/>
      <point x="399" y="668" type="line"/>
      <point x="122" y="668" type="line"/>
      <point x="122" y="0" type="line"/>
      <point x="186" y="0" type="line"/>
      <point x="186" y="323" type="line"/>
      <point x="429" y="323" type="line" smooth="yes"/>
      <point x="470" y="323"/>
      <point x="493" y="298"/>
      <point x="493" y="257" type="curve" smooth="yes"/>
      <point x="493" y="97" type="line" smooth="yes"/>
      <point x="493" y="68"/>
      <point x="479" y="55"/>
      <point x="452" y="55" type="curve" smooth="yes"/>
      <point x="409" y="55" type="line" smooth="yes"/>
      <point x="382" y="55"/>
      <point x="369" y="68"/>
      <point x="369" y="97" type="curve" smooth="yes"/>
      <point x="369" y="185" type="line"/>
      <point x="305" y="185" type="line"/>
      <point x="305" y="88" type="line" smooth="yes"/>
      <point x="305" y="30"/>
      <point x="342" y="-5"/>
    </contour>
  </outline>
</glyph>
<glyph name="pi-beria" format="2">
  <advance width="660"/>
  <unicode hex="16ECB"/>
  <outline>
    <contour>
      <point x="102" y="255" type="curve" smooth="yes"/>
      <point x="102" y="0" type="line"/>
      <point x="612" y="0" type="line"/>
      <point x="612" y="60" type="line"/>
      <point x="506" y="60" type="line"/>
      <point x="506" y="668" type="line"/>
      <point x="224" y="668" type="line"/>
      <point x="224" y="608" type="line"/>
      <point x="487" y="608" type="line"/>
      <point x="442" y="653" type="line"/>
      <point x="442" y="377" type="line"/>
      <point x="224" y="377" type="line" smooth="yes"/>
      <point x="154" y="377"/>
      <point x="102" y="324"/>
    </contour>
    <contour>
      <point x="487" y="60" type="line"/>
      <point x="121" y="60" type="line"/>
      <point x="166" y="15" type="line"/>
      <point x="166" y="255" type="line" smooth="yes"/>
      <point x="166" y="288"/>
      <point x="188" y="317"/>
      <point x="222" y="317" type="curve" smooth="yes"/>
      <point x="487" y="317" type="line"/>
      <point x="442" y="362" type="line"/>
      <point x="442" y="15" type="line"/>
    </contour>
  </outline>
</glyph>
<glyph name="erigo-tamura-beria" format="2">
  <advance width="828"/>
  <unicode hex="16ECD"/>
  <outline>
    <contour>
      <point x="643" y="324" type="line"/>
      <point x="185" y="324" type="line"/>
      <point x="185" y="668" type="line"/>
      <point x="121" y="668" type="line"/>
      <point x="121" y="264" type="line"/>
      <point x="707" y="264" type="line"/>
      <point x="707" y="668" type="line"/>
      <point x="643" y="668" type="line"/>
    </contour>
    <contour>
      <point x="445" y="122" type="curve" smooth="yes"/>
      <point x="445" y="668" type="line"/>
      <point x="383" y="668" type="line"/>
      <point x="383" y="126" type="line" smooth="yes"/>
      <point x="383" y="86"/>
      <point x="358" y="60"/>
      <point x="318" y="60" type="curve" smooth="yes"/>
      <point x="122" y="60" type="line"/>
      <point x="122" y="0" type="line"/>
      <point x="322" y="0" type="line" smooth="yes"/>
      <point x="393" y="0"/>
      <point x="445" y="53"/>
    </contour>
  </outline>
</glyph>
<glyph name="seri-beria" format="2">
  <advance width="601"/>
  <unicode hex="16ECE"/>
  <outline>
    <contour>
      <point x="69" y="0" type="line"/>
      <point x="255" y="0" type="line" smooth="yes"/>
      <point x="326" y="0"/>
      <point x="378" y="53"/>
      <point x="378" y="122" type="curve" smooth="yes"/>
      <point x="378" y="608" type="line"/>
      <point x="517" y="608" type="line"/>
      <point x="517" y="668" type="line"/>
      <point x="175" y="668" type="line"/>
      <point x="175" y="608" type="line"/>
      <point x="314" y="608" type="line"/>
      <point x="314" y="126" type="line" smooth="yes"/>
      <point x="314" y="86"/>
      <point x="291" y="60"/>
      <point x="251" y="60" type="curve" smooth="yes"/>
      <point x="69" y="60" type="line"/>
    </contour>
    <contour>
      <point x="195" y="384" type="line"/>
      <point x="497" y="384" type="line"/>
      <point x="497" y="444" type="line"/>
      <point x="195" y="444" type="line"/>
    </contour>
  </outline>
</glyph>
<glyph name="tatasoue-beria" format="2">
  <advance width="651"/>
  <unicode hex="16ED0"/>
  <outline>
    <contour>
      <point x="180" y="0" type="line"/>
      <point x="540" y="0" type="line"/>
      <point x="540" y="60" type="line"/>
      <point x="210" y="60" type="line"/>
      <point x="231" y="21" type="line"/>
      <point x="589" y="647" type="line"/>
      <point x="537" y="679" type="line"/>
      <point x="180" y="55" type="line"/>
    </contour>
    <contour>
      <point x="339" y="291" type="line"/>
      <point x="380" y="342" type="line"/>
      <point x="88" y="673" type="line"/>
      <point x="41" y="629" type="line"/>
    </contour>
  </outline>
</glyph>
<glyph name="wasse-beria" format="2">
  <advance width="771"/>
  <unicode hex="16ED2"/>
  <outline>
    <contour>
      <point x="127" y="46" type="curve"/>
      <point x="149" y="-13" type="line"/>
      <point x="273" y="25"/>
      <point x="367" y="103"/>
      <point x="395" y="199" type="curve"/>
      <point x="377" y="199" type="line"/>
      <point x="405" y="103"/>
      <point x="499" y="26"/>
      <point x="623" y="-12" type="curve"/>
      <point x="645" y="46" type="line"/>
      <point x="507" y="89"/>
      <point x="418" y="179"/>
      <point x="418" y="299" type="curve" smooth="yes"/>
      <point x="418" y="419"/>
      <point x="540" y="492"/>
      <point x="676" y="516" type="curve" smooth="yes"/>
      <point x="694" y="519"/>
      <point x="706" y="521"/>
      <point x="724" y="524" type="curve"/>
      <point x="714" y="587" type="line"/>
      <point x="693" y="584"/>
      <point x="681" y="582"/>
      <point x="665" y="579" type="curve" smooth="yes"/>
      <point x="553" y="558"/>
      <point x="450" y="505"/>
      <point x="403" y="433" type="curve"/>
      <point x="418" y="408" type="line"/>
      <point x="418" y="675" type="line"/>
      <point x="354" y="675" type="line"/>
      <point x="354" y="408" type="line"/>
      <point x="370" y="432" type="line"/>
      <point x="319" y="506"/>
      <point x="219" y="558"/>
      <point x="107" y="579" type="curve" smooth="yes"/>
      <point x="91" y="582"/>
      <point x="76" y="584"/>
      <point x="58" y="587" type="curve"/>
      <point x="47" y="524" type="line"/>
      <point x="65" y="521"/>
      <point x="77" y="519"/>
      <point x="95" y="516" type="curve" smooth="yes"/>
      <point x="234" y="491"/>
      <point x="354" y="419"/>
      <point x="354" y="299" type="curve" smooth="yes"/>
      <point x="354" y="179"/>
      <point x="265" y="89"/>
    </contour>
  </outline>
</glyph>
<glyph name="ay-beria" format="2">
  <advance width="622"/>
  <unicode hex="16ED3"/>
  <outline>
    <contour>
      <point x="546" y="302" type="curve"/>
      <point x="532" y="363" type="line"/>
      <point x="282" y="309"/>
      <point x="122" y="256"/>
      <point x="122" y="129" type="curve" smooth="yes"/>
      <point x="122" y="22"/>
      <point x="215" y="-15"/>
      <point x="304" y="-15" type="curve" smooth="yes"/>
      <point x="404" y="-15"/>
      <point x="506" y="32"/>
      <point x="506" y="150" type="curve" smooth="yes"/>
      <point x="506" y="331"/>
      <point x="199" y="393"/>
      <point x="199" y="546" type="curve" smooth="yes"/>
      <point x="199" y="601"/>
      <point x="257" y="624"/>
      <point x="308" y="624" type="curve" smooth="yes"/>
      <point x="351" y="624"/>
      <point x="399" y="602"/>
      <point x="399" y="558" type="curve" smooth="yes"/>
      <point x="399" y="474"/>
      <point x="215" y="436"/>
      <point x="75" y="410" type="curve"/>
      <point x="88" y="349" type="line"/>
      <point x="256" y="380"/>
      <point x="465" y="433"/>
      <point x="465" y="557" type="curve" smooth="yes"/>
      <point x="465" y="643"/>
      <point x="382" y="684"/>
      <point x="308" y="684" type="curve" smooth="yes"/>
      <point x="225" y="684"/>
      <point x="133" y="643"/>
      <point x="133" y="546" type="curve" smooth="yes"/>
      <point x="133" y="364"/>
      <point x="440" y="289"/>
      <point x="440" y="150" type="curve" smooth="yes"/>
      <point x="440" y="75"/>
      <point x="371" y="45"/>
      <point x="304" y="45" type="curve" smooth="yes"/>
      <point x="246" y="45"/>
      <point x="188" y="68"/>
      <point x="188" y="131" type="curve" smooth="yes"/>
      <point x="188" y="215"/>
      <point x="323" y="259"/>
    </contour>
  </outline>
</glyph>
<glyph name="Arkab-beria.001" format="2">
  <advance width="785"/>
  <anchor x="393" y="720" name="U"/>
  <outline>
    <contour>
      <point x="101" y="-106" type="line"/>
      <point x="153" y="-146" type="line"/>
      <point x="692" y="605" type="line"/>
      <point x="692" y="668" type="line"/>
      <point x="93" y="668" type="line"/>
      <point x="93" y="605" type="line"/>
      <point x="636" y="-146" type="line"/>
      <point x="690" y="-104" type="line"/>
      <point x="153" y="642" type="line"/>
      <point x="134" y="605" type="line"/>
      <point x="657" y="605" type="line"/>
      <point x="638" y="642" type="line"/>
    </contour>
  </outline>
</glyph>
<glyph name="Basigna-beria.001" format="2">
  <advance width="831"/>
  <outline>
    <contour>
      <point x="724" y="673" type="line"/>
      <point x="400" y="-110" type="line"/>
      <point x="434" y="-110" type="line"/>
      <point x="109" y="674" type="line"/>
      <point x="47" y="647" type="line"/>
      <point x="372" y="-136" type="line"/>
      <point x="459" y="-136" type="line"/>
      <point x="784" y="646" type="line"/>
    </contour>
    <contour>
      <point x="589" y="289" type="curve"/>
      <point x="613" y="348" type="line"/>
      <point x="559" y="375"/>
      <point x="500" y="389"/>
      <point x="447" y="393" type="curve"/>
      <point x="447" y="674" type="line"/>
      <point x="381" y="674" type="line"/>
      <point x="381" y="393" type="line"/>
      <point x="333" y="389"/>
      <point x="285" y="378"/>
      <point x="220" y="350" type="curve"/>
      <point x="245" y="292" type="line"/>
      <point x="313" y="321"/>
      <point x="363" y="331"/>
      <point x="414" y="331" type="curve" smooth="yes"/>
      <point x="470" y="331"/>
      <point x="534" y="316"/>
    </contour>
  </outline>
</glyph>
<glyph name="Lakko-beria.001" format="2">
  <advance width="550"/>
  <outline>
    <contour>
      <point x="153" y="668" type="line"/>
      <point x="153" y="605" type="line"/>
      <point x="241" y="605" type="line"/>
      <point x="241" y="-73" type="line"/>
      <point x="80" y="-73" type="line"/>
      <point x="80" y="-136" type="line"/>
      <point x="470" y="-136" type="line"/>
      <point x="470" y="-73" type="line"/>
      <point x="309" y="-73" type="line"/>
      <point x="309" y="605" type="line"/>
      <point x="398" y="605" type="line"/>
      <point x="398" y="668" type="line"/>
    </contour>
  </outline>
</glyph>
<glyph name="Tatasoue-beria.001" format="2">
  <advance width="710"/>
  <outline>
    <contour>
      <point x="415" y="327" type="line"/>
      <point x="90" y="674" type="line"/>
      <point x="39" y="626" type="line"/>
      <point x="382" y="258" type="line"/>
    </contour>
    <contour>
      <point x="575" y="684" type="line"/>
      <point x="203" y="-77" type="line"/>
      <point x="203" y="-136" type="line"/>
      <point x="574" y="-136" type="line"/>
      <point x="574" y="-72" type="line"/>
      <point x="235" y="-72" type="line"/>
      <point x="260" y="-112" type="line"/>
      <point x="635" y="654" type="line"/>
    </contour>
  </outline>
</glyph>
<glyph name="_dieresiscomb" format="2">
  <anchor x="0" y="524" name="_aboveLC"/>
  <anchor x="0" y="711" name="aboveLC"/>
  <outline>
    <contour>
      <point x="-96" y="611" type="curve" smooth="yes"/>
      <point x="-69" y="611"/>
      <point x="-50" y="631"/>
      <point x="-50" y="657" type="curve" smooth="yes"/>
      <point x="-50" y="683"/>
      <point x="-69" y="703"/>
      <point x="-96" y="703" type="curve" smooth="yes"/>
      <point x="-122" y="703"/>
      <point x="-142" y="683"/>
      <point x="-142" y="657" type="curve" smooth="yes"/>
      <point x="-142" y="631"/>
      <point x="-122" y="611"/>
    </contour>
    <contour>
      <point x="96" y="611" type="curve" smooth="yes"/>
      <point x="122" y="611"/>
      <point x="142" y="631"/>
      <point x="142" y="657" type="curve" smooth="yes"/>
      <point x="142" y="683"/>
      <point x="122" y="703"/>
      <point x="96" y="703" type="curve" smooth="yes"/>
      <point x="69" y="703"/>
      <point x="50" y="683"/>
      <point x="50" y="657" type="curve" smooth="yes"/>
      <point x="50" y="631"/>
      <point x="69" y="611"/>
    </contour>
  </outline>
</glyph>
<glyph name="_ringcomb" format="2">
  <anchor x="0" y="524" name="_aboveLC"/>
  <outline>
    <contour>
      <point x="0" y="570" type="curve" smooth="yes"/>
      <point x="65" y="570"/>
      <point x="108" y="612"/>
      <point x="108" y="670" type="curve" smooth="yes"/>
      <point x="108" y="728"/>
      <point x="65" y="770"/>
      <point x="0" y="770" type="curve" smooth="yes"/>
      <point x="-65" y="770"/>
      <point x="-108" y="728"/>
      <point x="-108" y="670" type="curve" smooth="yes"/>
      <point x="-108" y="612"/>
      <point x="-65" y="570"/>
    </contour>
    <contour>
      <point x="0" y="603" type="curve" smooth="yes"/>
      <point x="-34" y="603"/>
      <point x="-62" y="629"/>
      <point x="-62" y="670" type="curve" smooth="yes"/>
      <point x="-62" y="711"/>
      <point x="-34" y="737"/>
      <point x="0" y="737" type="curve" smooth="yes"/>
      <point x="34" y="737"/>
      <point x="62" y="711"/>
      <point x="62" y="670" type="curve" smooth="yes"/>
      <point x="62" y="629"/>
      <point x="34" y="603"/>
    </contour>
  </outline>
</glyph>
<glyph name="_three.dnom" format="2">
  <advance width="377"/>
  <outline>
    <contour>
      <point x="185" y="-12" type="curve" smooth="yes"/>
      <point x="262" y="-12"/>
      <point x="324" y="33"/>
      <point x="324" y="107" type="curve" smooth="yes"/>
      <point x="324" y="162"/>
      <point x="282" y="196"/>
      <point x="235" y="207" type="curve"/>
      <point x="278" y="225"/>
      <point x="308" y="258"/>
      <point x="308" y="307" type="curve" smooth="yes"/>
      <point x="308" y="375"/>
      <point x="251" y="415"/>
      <point x="182" y="415" type="curve" smooth="yes"/>
      <point x="128" y="415"/>
      <point x="87" y="388"/>
      <point x="55" y="349" type="curve"/>
      <point x="89" y="319" type="line"/>
      <point x="113" y="349"/>
      <point x="144" y="370"/>
      <point x="175" y="370" type="curve" smooth="yes"/>
      <point x="222" y="370"/>
      <point x="253" y="342"/>
      <point x="253" y="301" type="curve" smooth="yes"/>
      <point x="253" y="258"/>
      <point x="210" y="223"/>
      <point x="137" y="223" type="curve"/>
      <point x="137" y="186" type="line"/>
      <point x="219" y="186"/>
      <point x="269" y="159"/>
      <point x="269" y="110" type="curve" smooth="yes"/>
      <point x="269" y="61"/>
      <point x="229" y="32"/>
      <point x="182" y="32" type="curve" smooth="yes"/>
      <point x="139" y="32"/>
      <point x="101" y="57"/>
      <point x="76" y="95" type="curve"/>
      <point x="38" y="65" type="line"/>
      <point x="68" y="22"/>
      <point x="120" y="-12"/>
    </contour>
  </outline>
</glyph>
<glyph name="zero.001" format="2">
  <advance width="630"/>
  <outline>
    <contour>
      <point x="315" y="45" type="curve" smooth="yes"/>
      <point x="205" y="45"/>
      <point x="143" y="162"/>
      <point x="143" y="335" type="curve" smooth="yes"/>
      <point x="143" y="508"/>
      <point x="205" y="624"/>
      <point x="315" y="624" type="curve" smooth="yes"/>
      <point x="425" y="624"/>
      <point x="487" y="508"/>
      <point x="487" y="335" type="curve" smooth="yes"/>
      <point x="487" y="162"/>
      <point x="425" y="45"/>
    </contour>
    <contour>
      <point x="314" y="-15" type="curve" smooth="yes"/>
      <point x="473" y="-15"/>
      <point x="554" y="140"/>
      <point x="554" y="335" type="curve" smooth="yes"/>
      <point x="554" y="550"/>
      <point x="476" y="684"/>
      <point x="317" y="684" type="curve" smooth="yes"/>
      <point x="158" y="684"/>
      <point x="76" y="530"/>
      <point x="76" y="335" type="curve" smooth="yes"/>
      <point x="76" y="116"/>
      <point x="155" y="-15"/>
    </contour>
  </outline>
</glyph>
<glyph name="zero.dnom" format="2">
  <advance width="377"/>
  <outline>
    <contour>
      <point x="188" y="-12" type="curve" smooth="yes"/>
      <point x="280" y="-12"/>
      <point x="339" y="65"/>
      <point x="339" y="202" type="curve" smooth="yes"/>
      <point x="339" y="338"/>
      <point x="280" y="415"/>
      <point x="188" y="415" type="curve" smooth="yes"/>
      <point x="97" y="415"/>
      <point x="38" y="338"/>
      <point x="38" y="202" type="curve" smooth="yes"/>
      <point x="38" y="65"/>
      <point x="97" y="-12"/>
    </contour>
    <contour>
      <point x="188" y="32" type="curve" smooth="yes"/>
      <point x="131" y="32"/>
      <point x="92" y="91"/>
      <point x="92" y="202" type="curve" smooth="yes"/>
      <point x="92" y="313"/>
      <point x="131" y="370"/>
      <point x="188" y="370" type="curve" smooth="yes"/>
      <point x="246" y="370"/>
      <point x="284" y="313"/>
      <point x="284" y="202" type="curve" smooth="yes"/>
      <point x="284" y="91"/>
      <point x="246" y="32"/>
    </contour>
  </outline>
</glyph>
